<svg xmlns="http://www.w3.org/2000/svg" width="20.096" height="19.323" viewBox="0 0 20.096 19.323">
  <g id="Icon_ionic-ios-heart" data-name="Icon ionic-ios-heart" transform="translate(-3.375 -3.938)" fill="#b3036a" stroke-linecap="round">
    <path d="M 13.42330455780029 22.00922775268555 C 12.07292175292969 20.96794128417969 8.684723854064941 18.21513938903809 6.491246223449707 15.21641063690186 C 5.029356002807617 13.21787071228027 4.374996185302734 10.85323143005371 4.374996185302734 9.396321296691895 C 4.374996185302734 8.212461471557617 4.83440637588501 7.097671031951904 5.668606281280518 6.257291316986084 C 6.500967025756836 5.418768405914307 7.609394550323486 4.95018196105957 8.790342330932617 4.937500953674316 L 8.833816528320312 4.937500953674316 C 10.34316635131836 4.937500953674316 11.74557590484619 5.706830978393555 12.58525657653809 6.995460987091064 L 13.42308616638184 8.281230926513672 L 14.26091575622559 6.995460987091064 C 15.10059642791748 5.706830978393555 16.50300598144531 4.937500953674316 18.01235580444336 4.937500953674316 L 18.05583000183105 4.937500953674316 C 19.23677825927734 4.95018196105957 20.34520530700684 5.418768405914307 21.17756652832031 6.257291316986084 C 22.01176643371582 7.097671031951904 22.47117614746094 8.212461471557617 22.47117614746094 9.396321296691895 C 22.47117614746094 10.85324096679688 21.81681632995605 13.21789073944092 20.35492706298828 15.21641063690186 C 18.1579532623291 18.21992301940918 14.77310371398926 20.96901512145996 13.42330455780029 22.00922775268555 Z" stroke="none"/>
    <path d="M 8.796701431274414 5.937501907348633 C 6.909255981445312 5.960277557373047 5.374996185302734 7.510168075561523 5.374996185302734 9.396320343017578 C 5.374996185302734 10.69062042236328 5.969717025756836 12.80965137481689 7.298366546630859 14.62603092193604 C 9.14208984375 17.14659309387207 11.88035488128662 19.5028076171875 13.42383193969727 20.73802375793457 C 14.965651512146 19.50519752502441 17.69853591918945 17.1541862487793 19.54780578613281 14.62602138519287 C 20.87645721435547 12.80964088439941 21.47117614746094 10.69062042236328 21.47117614746094 9.396320343017578 C 21.47117614746094 7.510168075561523 19.93691635131836 5.960277557373047 18.04946899414062 5.937501907348633 L 18.01235580444336 5.937501907348633 C 16.84235572814941 5.937501907348633 15.75315570831299 6.537090301513672 15.09873580932617 7.541391372680664 L 13.42308616638184 10.11295127868652 L 11.7474365234375 7.541391372680664 C 11.09301662445068 6.537090301513672 10.00381660461426 5.937501907348633 8.833816528320312 5.937501907348633 L 8.796701431274414 5.937501907348633 M 8.785505294799805 3.937501907348633 C 8.799995422363281 3.937501907348633 8.819326400756836 3.937501907348633 8.833816528320312 3.937501907348633 C 10.75164604187012 3.937501907348633 12.44726657867432 4.951971054077148 13.42308616638184 6.449522018432617 C 14.39890575408936 4.951971054077148 16.09452629089355 3.937501907348633 18.01235580444336 3.937501907348633 C 18.02684593200684 3.937501907348633 18.04617691040039 3.937501907348633 18.06066513061523 3.937501907348633 C 21.05093574523926 3.966480255126953 23.47117614746094 6.396381378173828 23.47117614746094 9.396320343017578 C 23.47117614746094 11.18371200561523 22.68857574462891 13.71989154815674 21.16204643249512 15.80680084228516 C 18.2538948059082 19.78256225585938 13.42308616638184 23.26074028015137 13.42308616638184 23.26074028015137 C 13.42308616638184 23.26074028015137 8.592275619506836 19.78256225585938 5.684125900268555 15.80680084228516 C 4.157587051391602 13.71989154815674 3.374996185302734 11.18371200561523 3.374996185302734 9.396320343017578 C 3.374996185302734 6.396381378173828 5.795236587524414 3.966480255126953 8.785505294799805 3.937501907348633 Z" stroke="none" fill="#b3036a"/>
  </g>
</svg>
