<svg xmlns="http://www.w3.org/2000/svg" width="20.096" height="19.323" viewBox="0 0 20.096 19.323">
  <g id="Icon_ionic-ios-heart" data-name="Icon ionic-ios-heart" transform="translate(-3.375 -3.938)" fill="none" stroke-linecap="round">
    <path d="M18.061,3.938h-.048A5.5,5.5,0,0,0,13.423,6.45,5.5,5.5,0,0,0,8.834,3.938H8.786A5.462,5.462,0,0,0,3.375,9.4a11.759,11.759,0,0,0,2.309,6.41,40.466,40.466,0,0,0,7.739,7.454,40.466,40.466,0,0,0,7.739-7.454A11.759,11.759,0,0,0,23.471,9.4,5.462,5.462,0,0,0,18.061,3.938Z" stroke="none"/>
    <path d="M 8.796701431274414 5.937501907348633 C 6.909255981445312 5.960277557373047 5.374996185302734 7.510168075561523 5.374996185302734 9.396320343017578 C 5.374996185302734 10.69062042236328 5.969717025756836 12.80965137481689 7.298366546630859 14.62603092193604 C 9.14208984375 17.14659309387207 11.88035488128662 19.5028076171875 13.42383193969727 20.73802375793457 C 14.965651512146 19.50519752502441 17.69853591918945 17.1541862487793 19.54780578613281 14.62602138519287 C 20.87645721435547 12.80964088439941 21.47117614746094 10.69062042236328 21.47117614746094 9.396320343017578 C 21.47117614746094 7.510168075561523 19.93691635131836 5.960277557373047 18.04946899414062 5.937501907348633 L 18.01235580444336 5.937501907348633 C 16.84235572814941 5.937501907348633 15.75315570831299 6.537090301513672 15.09873580932617 7.541391372680664 L 13.42308616638184 10.11295127868652 L 11.7474365234375 7.541391372680664 C 11.09301662445068 6.537090301513672 10.00381660461426 5.937501907348633 8.833816528320312 5.937501907348633 L 8.796701431274414 5.937501907348633 M 8.785505294799805 3.937501907348633 C 8.799995422363281 3.937501907348633 8.819326400756836 3.937501907348633 8.833816528320312 3.937501907348633 C 10.75164604187012 3.937501907348633 12.44726657867432 4.951971054077148 13.42308616638184 6.449522018432617 C 14.39890575408936 4.951971054077148 16.09452629089355 3.937501907348633 18.01235580444336 3.937501907348633 C 18.02684593200684 3.937501907348633 18.04617691040039 3.937501907348633 18.06066513061523 3.937501907348633 C 21.05093574523926 3.966480255126953 23.47117614746094 6.396381378173828 23.47117614746094 9.396320343017578 C 23.47117614746094 11.18371200561523 22.68857574462891 13.71989154815674 21.16204643249512 15.80680084228516 C 18.2538948059082 19.78256225585938 13.42308616638184 23.26074028015137 13.42308616638184 23.26074028015137 C 13.42308616638184 23.26074028015137 8.592275619506836 19.78256225585938 5.684125900268555 15.80680084228516 C 4.157587051391602 13.71989154815674 3.374996185302734 11.18371200561523 3.374996185302734 9.396320343017578 C 3.374996185302734 6.396381378173828 5.795236587524414 3.966480255126953 8.785505294799805 3.937501907348633 Z" stroke="none" fill="#b3036a"/>
  </g>
</svg>
