<svg xmlns="http://www.w3.org/2000/svg" width="12.887" height="15.687" viewBox="0 0 12.887 15.687"><g transform="translate(-317.787 -266.157)"><path d="M6.843,14.687a1,1,0,0,1-.707-.293L-.707,7.55a1,1,0,0,1,0-1.414L6.136-.707a1,1,0,0,1,1.414,0,1,1,0,0,1,0,1.414L1.414,6.843,7.55,12.98a1,1,0,0,1-.707,1.707Z" transform="translate(329.674 280.843) rotate(180)" fill="#b3036a"/><path d="M10.69,1H0A1,1,0,0,1-1,0,1,1,0,0,1,0-1H10.69a1,1,0,0,1,1,1A1,1,0,0,1,10.69,1Z" transform="translate(318.787 274.103)" fill="#b3036a"/></g></svg>