<svg xmlns="http://www.w3.org/2000/svg" xmlns:xlink="http://www.w3.org/1999/xlink" width="20" height="20" viewBox="0 0 20 20">
  <defs>
    <clipPath id="clip-path">
      <rect id="Прямоугольник_133" data-name="Прямоугольник 133" width="20" height="20" fill="#fff"/>
    </clipPath>
  </defs>
  <g id="Группа_масок_29" data-name="Группа масок 29" opacity="0.72" clip-path="url(#clip-path)">
    <g id="old-typical-phone" transform="translate(0 1.767)">
      <g id="Сгруппировать_47" data-name="Сгруппировать 47">
        <path id="Контур_41" data-name="Контур 41" d="M10.11,4.775c3.37.033,5.481-.177,5.766,3.559h4.109c0-5.786-5.047-6.566-9.983-6.566S.02,2.547.02,8.333H4.1C4.413,4.527,6.768,4.742,10.11,4.775Z" transform="translate(0 -1.767)" fill="#fff"/>
        <path id="Контур_42" data-name="Контур 42" d="M2.058,10.194c1,0,1.834.06,2.019-.925a2.512,2.512,0,0,0,.039-.461H0C0,10.272.922,10.194,2.058,10.194Z" transform="translate(0 -1.767)" fill="#fff"/>
        <path id="Контур_43" data-name="Контур 43" d="M15.9,8.808h-.039a2.2,2.2,0,0,0,.044.461c.2.908,1.027.852,2.024.852C19.074,10.12,20,10.2,20,8.808H15.9Z" transform="translate(0 -1.767)" fill="#fff"/>
        <path id="Контур_44" data-name="Контур 44" d="M13.895,7.81V7.229c0-.26-.3-.277-.67-.277h-.6c-.37,0-.67.016-.67.277v.89H7.671v-.89c0-.26-.3-.277-.67-.277H6.4c-.37,0-.67.016-.67.277v1.09a43.126,43.126,0,0,0-4.281,5.847l0,3.484a.584.584,0,0,0,.584.584H17.59a.584.584,0,0,0,.584-.584v-3.5a43.9,43.9,0,0,0-4.279-5.83ZM7.46,14.634a.567.567,0,1,1,.567-.567A.567.567,0,0,1,7.46,14.634Zm0-1.945a.567.567,0,1,1,.567-.567A.567.567,0,0,1,7.46,12.689Zm0-1.945a.567.567,0,1,1,.567-.567A.567.567,0,0,1,7.46,10.745Zm2.334,3.89a.567.567,0,1,1,.567-.567A.567.567,0,0,1,9.794,14.634Zm0-1.945a.567.567,0,1,1,.567-.567A.567.567,0,0,1,9.794,12.689Zm0-1.945a.567.567,0,1,1,.567-.567A.567.567,0,0,1,9.794,10.745Zm2.334,3.89a.567.567,0,1,1,.567-.567A.567.567,0,0,1,12.128,14.634Zm0-1.945a.567.567,0,1,1,.567-.567A.567.567,0,0,1,12.128,12.689Zm0-1.945a.567.567,0,1,1,.567-.567A.567.567,0,0,1,12.128,10.745Z" transform="translate(0 -1.767)" fill="#fff"/>
      </g>
    </g>
  </g>
</svg>
