<svg xmlns="http://www.w3.org/2000/svg" xmlns:xlink="http://www.w3.org/1999/xlink" width="20" height="20" viewBox="0 0 20 20">
  <defs>
    <clipPath id="clip-path">
      <rect id="Прямоугольник_135" data-name="Прямоугольник 135" width="20" height="20" fill="#fff"/>
    </clipPath>
  </defs>
  <g id="Группа_масок_31" data-name="Группа масок 31" opacity="0.72" clip-path="url(#clip-path)">
    <g id="pin" transform="translate(3.124 0)">
      <path id="Контур_47" data-name="Контур 47" d="M15.921,3.425A6.787,6.787,0,0,0,10.154,0c-.1,0-.205,0-.308,0A6.787,6.787,0,0,0,4.079,3.425a6.963,6.963,0,0,0-.091,6.88l4.959,9.078.007.012a1.205,1.205,0,0,0,2.091,0l.007-.012L16.012,10.3a6.963,6.963,0,0,0-.091-6.88ZM10,9.062A2.812,2.812,0,1,1,12.812,6.25,2.816,2.816,0,0,1,10,9.062Z" transform="translate(-3.124 0)" fill="#fff"/>
    </g>
  </g>
</svg>
