<svg xmlns="http://www.w3.org/2000/svg" width="247.224" height="65.853" viewBox="0 0 247.224 65.853"><g transform="translate(-851.388 -580.489)" opacity="0.405"><path d="M969.157,606.485H955.533a6.581,6.581,0,0,0-6.58,6.58v7.8a6.581,6.581,0,0,0,6.58,6.58h18.554a2.817,2.817,0,0,0,2.817-2.817V599.763a4.924,4.924,0,0,0-4.924-4.924H951.94a1.823,1.823,0,0,0-1.823,1.823V600a1.823,1.823,0,0,0,1.823,1.823H968.7a1.217,1.217,0,0,1,1.216,1.216v2.683A.759.759,0,0,1,969.157,606.485Zm.759,13.976H958.51a2.57,2.57,0,0,1-2.569-2.569v-1.85a2.57,2.57,0,0,1,2.569-2.569h10.71a.7.7,0,0,1,.7.7Z" transform="translate(16.064 2.363)" fill="#fff"/><path d="M1026.185,615.8h13.623a6.581,6.581,0,0,0,6.58-6.58V604.37a9.532,9.532,0,0,0-9.531-9.531h-9.551a8.869,8.869,0,0,0-8.869,8.869V619.4a8.051,8.051,0,0,0,8.051,8.05H1043.4a1.822,1.822,0,0,0,1.823-1.823v-3.342a1.822,1.822,0,0,0-1.823-1.823h-16.759a1.216,1.216,0,0,1-1.217-1.216v-2.683A.76.76,0,0,1,1026.185,615.8Zm-.76-11.178a2.8,2.8,0,0,1,2.8-2.8h8.608a2.569,2.569,0,0,1,2.569,2.569v1.85a2.569,2.569,0,0,1-2.569,2.569h-10.71a.7.7,0,0,1-.7-.7Z" transform="translate(27.504 2.363)" fill="#fff"/><path d="M906.172,627.149h4.569a1.21,1.21,0,0,0,1.21-1.209V603.062a1.209,1.209,0,0,1,1.209-1.21h8.063a1.21,1.21,0,0,0,1.21-1.21v-4.568a1.21,1.21,0,0,0-1.21-1.21H895.69a1.21,1.21,0,0,0-1.209,1.21v4.568a1.21,1.21,0,0,0,1.209,1.21h8.063a1.21,1.21,0,0,1,1.21,1.21V625.94A1.209,1.209,0,0,0,906.172,627.149Z" transform="translate(7.095 2.367)" fill="#fff"/><path d="M934.218,627.149h4.568A1.21,1.21,0,0,0,940,625.94V603.062a1.21,1.21,0,0,1,1.21-1.21h8.062a1.21,1.21,0,0,0,1.21-1.21v-4.568a1.21,1.21,0,0,0-1.21-1.21H923.736a1.21,1.21,0,0,0-1.21,1.21v4.568a1.21,1.21,0,0,0,1.21,1.21H931.8a1.21,1.21,0,0,1,1.21,1.21V625.94A1.21,1.21,0,0,0,934.218,627.149Z" transform="translate(11.713 2.367)" fill="#fff"/><path d="M983.153,594.725h-3.912a1.538,1.538,0,0,0-1.539,1.537v27.949a3.257,3.257,0,0,0,3.256,3.256h36.7a3.257,3.257,0,0,0,3.256-3.256V596.262a1.538,1.538,0,0,0-1.537-1.537h-3.912a1.538,1.538,0,0,0-1.538,1.537v23.58a.637.637,0,0,1-.637.637h-9.849a.637.637,0,0,1-.637-.637v-23.58a1.537,1.537,0,0,0-1.537-1.537h-3.912a1.538,1.538,0,0,0-1.538,1.537v23.58a.637.637,0,0,1-.637.637h-9.849a.637.637,0,0,1-.637-.637v-23.58A1.538,1.538,0,0,0,983.153,594.725Z" transform="translate(20.797 2.344)" fill="#fff"/><path d="M1066.787,580.489h-185.9v7h185.9c14.209,0,24.825,13.688,24.825,25.927s-10.617,25.926-24.825,25.926H875.953a17.566,17.566,0,1,1,0-35.131l10.964-.01,2.4-.011a1.217,1.217,0,0,1,1.216,1.216v2.683a.759.759,0,0,1-.759.759H876.151a6.581,6.581,0,0,0-6.58,6.58v7.8a6.581,6.581,0,0,0,6.58,6.58H894.7a2.817,2.817,0,0,0,2.817-2.817V602.126A4.924,4.924,0,0,0,892.6,597.2H882.382v.01h-6.429a24.565,24.565,0,1,0,0,49.129h190.834c16.954,0,31.825-15.386,31.825-32.926S1083.74,580.489,1066.787,580.489ZM890.534,622.824H879.128a2.57,2.57,0,0,1-2.569-2.569v-1.849a2.57,2.57,0,0,1,2.569-2.569h10.71a.7.7,0,0,1,.7.7Z" fill="#fff"/></g></svg>