<svg xmlns="http://www.w3.org/2000/svg" width="50" height="50" viewBox="0 0 50 50"><g transform="translate(-45 -138)"><g transform="translate(-1161.09 120.605)"><g transform="translate(1216 24)"><path d="M1216,58.993V28.67c.023-.055.05-.108.067-.164a2.148,2.148,0,0,1,2.173-1.632c.2,0,.4,0,.634,0,0-.211.005-.387,0-.563a2.232,2.232,0,0,1,.546-1.587A2.606,2.606,0,0,1,1220.67,24h17.82c.189.161.39.31.565.485q3.323,3.315,6.638,6.638c.175.175.324.376.485.565v24.43a1.662,1.662,0,0,0-.068.164,2.151,2.151,0,0,1-2.173,1.632c-.2,0-.4,0-.633,0,0,.234,0,.435,0,.635a2.01,2.01,0,0,1-.733,1.681,6.193,6.193,0,0,1-1.064.559H1217.8A2.361,2.361,0,0,1,1216,58.993Zm21.556-33.556h-.291q-8.047,0-16.094,0c-.592,0-.858.265-.859.854,0,1.82,0,3.64,0,5.46,0,.529-.269.856-.7.867s-.734-.326-.735-.869c0-1.018,0-2.036,0-3.054v-.386h-.31c-.957-.005-1.128.166-1.128,1.126q0,14.46,0,28.919c0,.783.215,1,1.006,1h22.417a3.08,3.08,0,0,0,.359-.007.7.7,0,0,0,.636-.63c.023-.257,0-.517,0-.8h-20.581a2.183,2.183,0,0,1-2.405-2.4q0-8.424,0-16.849,0-.994.7-1.011c.481-.012.736.338.736,1.012q0,8.406,0,16.813c0,.786.214,1,1,1h22.417c.792,0,1.009-.214,1.009-.994q0-11.227,0-22.453v-.408H1240a2.189,2.189,0,0,1-2.443-2.434C1237.556,28.621,1237.556,27.054,1237.556,25.437Zm1.447,1.1c0,.083-.009.15-.009.218,0,1.2,0,2.39,0,3.586,0,.581.272.844.866.845q1.757,0,3.514,0c.088,0,.176-.014.258-.022Z" transform="translate(-1216 -24)" fill="#b3036a"/><path d="M1322.507,125.43h-5.49a2.941,2.941,0,0,1-.323-.006.715.715,0,0,1-.011-1.425,2.071,2.071,0,0,1,.251-.006h11.124c.072,0,.144,0,.215,0a.715.715,0,0,1,.011,1.43c-.107.009-.215,0-.323,0Z" transform="translate(-1308.849 -116.808)" fill="#b3036a"/><path d="M1322.47,222.688h-5.425a3.442,3.442,0,0,1-.395-.011.7.7,0,0,1-.12-1.375,1.963,1.963,0,0,1,.5-.048q5.461,0,10.921,0a1.959,1.959,0,0,1,.5.048.7.7,0,0,1-.121,1.374,5.666,5.666,0,0,1-.574.012Z" transform="translate(-1308.836 -207.078)" fill="#b3036a"/><path d="M1321.7,368.687h-4.664a3.2,3.2,0,0,1-.394-.013.7.7,0,0,1-.1-1.376,2.006,2.006,0,0,1,.5-.046q4.664,0,9.328,0a2.1,2.1,0,0,1,.462.036.7.7,0,0,1-.1,1.389c-.2.017-.406.01-.609.01Z" transform="translate(-1308.841 -342.586)" fill="#b3036a"/><path d="M1321.408,415.981c1.507,0,3.014,0,4.521,0a.72.72,0,1,1,.036,1.433c-.741.007-1.483,0-2.224,0-2.272,0-4.545,0-6.817,0a1.211,1.211,0,0,1-.549-.112.652.652,0,0,1-.334-.762.7.7,0,0,1,.7-.554c.837-.01,1.674,0,2.512,0Z" transform="translate(-1308.833 -387.814)" fill="#b3036a"/><path d="M1319.586,76.663c-.9,0-1.8,0-2.694,0-.537,0-.854-.267-.86-.7a.743.743,0,0,1,.841-.731q2.748-.007,5.5,0c.6,0,.976.446.8.94a.709.709,0,0,1-.749.495C1321.478,76.661,1320.532,76.662,1319.586,76.663Z" transform="translate(-1308.843 -71.543)" fill="#b3036a"/><path d="M1319.662,269.993c.9,0,1.793,0,2.689,0,.527,0,.854.269.864.7s-.327.735-.866.735q-2.725,0-5.449,0c-.527,0-.853-.27-.864-.7s.325-.733.866-.734C1317.822,269.991,1318.742,269.993,1319.662,269.993Z" transform="translate(-1308.847 -252.317)" fill="#b3036a"/><path d="M1319.645,318.738c.91,0,1.82,0,2.73,0,.53,0,.848.28.842.72a.738.738,0,0,1-.824.713q-2.766.009-5.532,0a.738.738,0,0,1-.824-.713c-.006-.438.314-.718.841-.72C1317.8,318.735,1318.722,318.738,1319.645,318.738Z" transform="translate(-1308.849 -297.559)" fill="#b3036a"/><path d="M1256.73,170.465a.716.716,0,1,1,.733-.681A.724.724,0,0,1,1256.73,170.465Z" transform="translate(-1253.155 -158.612)" fill="#b3036a"/></g></g><rect width="50" height="50" transform="translate(45 138)" fill="none"/></g></svg>