<svg xmlns="http://www.w3.org/2000/svg" width="50" height="50" viewBox="0 0 50 50"><g transform="translate(-45 -411)"><g transform="translate(-1103.373 -219.373)"><g transform="translate(1156 638)"><path d="M1156,643.768v-.611a1.322,1.322,0,0,1,.891-.8q5.03-1.292,10.058-2.593c.243-.063.454-.111.55-.41a1.068,1.068,0,0,1,.411-.43c.433-.319.881-.618,1.323-.924h8.279c.434.3.878.585,1.3.9a5.225,5.225,0,0,1,.5.538.874.874,0,0,0,.334.265q4.942,1.295,9.89,2.563a1.525,1.525,0,0,1,1.218.887v.611a.428.428,0,0,0-.056.117c-.3,2.1-.6,4.2-.9,6.308-.119.86-.472,1.187-1.339,1.188h-4.071c-.119,0-.237.01-.379.016v19.34a1.746,1.746,0,0,1-1.335,2.008h-15.2c-.221-.173-.417-.359-.3-.679s.379-.342.667-.341c1.549,0,3.1,0,4.646,0h.358v-1.2h-9.085c0,.155,0,.289,0,.422.008.565.221.779.781.782.294,0,.588.008.882,0s.554.038.664.347-.074.511-.313.673h-1.7a1.744,1.744,0,0,1-1.335-2.007V651.382h-.413c-1.368,0-2.737,0-4.1,0a1.093,1.093,0,0,1-1.249-1.053c-.22-1.486-.421-2.975-.638-4.462C1156.234,645.165,1156.113,644.467,1156,643.768Zm7.76,25.7h9.083V645.111c-.126.073-.223.123-.314.183-.511.333-1.018.674-1.533,1a1.072,1.072,0,0,1-1.689-.58c-.259-.734-.506-1.473-.76-2.209-.042-.123-.094-.244-.146-.376-1.6.417-3.16.833-4.726,1.221-.277.069-.288.184-.264.42.125,1.247.322,2.495.328,3.743.034,6.829.019,13.658.021,20.487C1163.76,669.143,1163.76,669.288,1163.76,669.466Zm10.15-24.374v24.375h9.078v-.447q0-9.922.007-19.843c0-.993.075-1.987.145-2.978.042-.583.143-1.162.221-1.773l-4.993-1.291a.648.648,0,0,0-.066.095q-.41,1.183-.819,2.367a1.1,1.1,0,0,1-1.828.633C1175.089,645.863,1174.524,645.493,1173.91,645.092Zm-14.7,5.27c-.018-.181-.027-.325-.047-.467-.19-1.32-.383-2.638-.571-3.958a.531.531,0,0,1,.414-.668.52.52,0,0,1,.592.507c.117.794.227,1.588.341,2.382.1.725.211,1.45.318,2.184h2.467a24.77,24.77,0,0,0-.955-8.189l-2.588.673c.043.3.084.553.116.81a.51.51,0,0,1-.4.61.5.5,0,0,1-.6-.45c-.045-.229-.079-.461-.121-.715l-1.161.306c.046.319.089.618.131.918.275,1.935.547,3.87.831,5.8.013.091.122.235.2.241C1158.508,650.377,1158.845,650.362,1159.212,650.362Zm24.816,0c.729,0,1.438-.014,2.147.007.274.008.335-.1.368-.343.207-1.522.431-3.042.648-4.562.124-.87.246-1.741.373-2.643l-2.575-.663A24.51,24.51,0,0,0,1184.028,650.364Zm-13.6-11.33,2.947,4.208,2.944-4.208Zm3.665,4.959,2.34,1.527c.646-1.88,1.274-3.7,1.892-5.528a.281.281,0,0,0-.088-.244c-.251-.187-.518-.351-.8-.536Zm-4.784-4.783c-.258.171-.467.329-.693.455-.207.115-.239.235-.16.462.593,1.693,1.171,3.393,1.755,5.089.031.091.078.177.13.292l2.316-1.515Zm13.674,31.32H1173.9V671.7a.572.572,0,0,0,.115.029q4.156,0,8.313,0a.6.6,0,0,0,.647-.6C1183,670.936,1182.981,670.744,1182.981,670.529Zm4.537-20.166c.328,0,.619-.014.909,0,.241.016.326-.062.36-.312.228-1.678.476-3.353.716-5.03.078-.543.149-1.087.225-1.643l-1.171-.3Zm-24.745-8.467.4,1.535,4.911-1.272-.521-1.5Zm21.2,0-4.789-1.238-.516,1.507,4.694,1.21c.064.017.128.031.215.052Z" transform="translate(-1156 -638)" fill="#b3036a"/><path d="M1295.17,856.49c0,.667.005,1.333,0,2a1.053,1.053,0,0,1-.767,1.109c-.7.265-1.387.544-2.1.763a1.594,1.594,0,0,1-.883,0c-.711-.217-1.4-.5-2.1-.758a1.081,1.081,0,0,1-.782-1.1c0-1.356-.007-2.712,0-4.067a1.064,1.064,0,0,1,1.156-1.134q2.152-.009,4.3,0a1.072,1.072,0,0,1,1.168,1.155c0,.023,0,.045,0,.068Q1295.17,855.508,1295.17,856.49Zm-5.614-2.15c0,.471,0,.92,0,1.37,0,.488,0,.493.489.591a8.125,8.125,0,0,0,1.826.324,15.178,15.178,0,0,0,2.264-.41v-1.874Zm4.6,2.83a6.473,6.473,0,0,1-4.595.033c0,.457.01.805,0,1.153a.3.3,0,0,0,.239.344c.638.223,1.27.465,1.908.688a.518.518,0,0,0,.319,0q.974-.339,1.937-.707a.333.333,0,0,0,.187-.228C1294.162,858.071,1294.151,857.689,1294.151,857.171Z" transform="translate(-1279.542 -838.687)" fill="#b3036a"/><path d="M1307.283,804.751c-.519,0-1.038.005-1.557,0-.386-.005-.624-.215-.617-.524s.235-.489.607-.49q1.591-.006,3.182,0c.37,0,.6.2.6.5a.533.533,0,0,1-.591.516C1308.366,804.757,1307.824,804.751,1307.283,804.751Z" transform="translate(-1294.99 -792.485)" fill="#b3036a"/><path d="M1440.977,853.3c.712,0,1.424,0,2.135,0a1.074,1.074,0,0,1,1.187,1.171q.012,1.983,0,3.966a1.087,1.087,0,0,1-.815,1.183c-.675.255-1.356.495-2.032.748a1.284,1.284,0,0,1-.955-.01c-.684-.263-1.376-.506-2.062-.762a1.043,1.043,0,0,1-.764-1.075q-.01-2.051,0-4.1a1.059,1.059,0,0,1,1.135-1.118C1439.531,853.3,1440.254,853.3,1440.977,853.3Zm2.306,1.039h-4.594c0,.549.012,1.077-.005,1.605-.007.226.09.29.288.322.312.049.618.129.929.183a4.67,4.67,0,0,0,1.2.173,16.79,16.79,0,0,0,1.959-.376c.085-.019.214-.124.217-.193C1443.29,855.5,1443.282,854.933,1443.282,854.344Zm-4.594,2.856c0,.468.01.817,0,1.165a.3.3,0,0,0,.24.341c.627.219,1.248.458,1.875.679a.521.521,0,0,0,.319.015c.66-.229,1.316-.47,1.97-.715.073-.027.178-.106.18-.165.016-.411.009-.822.009-1.33A6.527,6.527,0,0,1,1438.688,857.2Z" transform="translate(-1418.552 -838.691)" fill="#b3036a"/><path d="M1479.249,770.53c.373,0,.746-.012,1.119,0a1.039,1.039,0,0,1,1.053,1.09,9.345,9.345,0,0,1-.048,1.521,2.111,2.111,0,0,1-2.39,1.761,2.133,2.133,0,0,1-1.95-2.038c-.023-.428-.018-.859,0-1.288a1.04,1.04,0,0,1,1.033-1.043c.395-.017.791,0,1.187,0Zm-1.194,1.032c0,.479-.033.92.008,1.354a1.177,1.177,0,0,0,2.3.1,10.719,10.719,0,0,0,.013-1.452Z" transform="translate(-1455.232 -761.531)" fill="#b3036a"/></g></g><rect width="50" height="50" transform="translate(45 411)" fill="none"/></g></svg>