<svg xmlns="http://www.w3.org/2000/svg" width="50" height="50" viewBox="0 0 50 50"><g transform="translate(-45 -67)"><g transform="translate(-40.778 71.9)"><g transform="translate(88 1)"><path d="M116.273,1h4.241c.915.365.817,1.174.8,1.973h.524q2.363,0,4.725,0c.95,0,1.315.362,1.316,1.3q0,4.482,0,8.965c0,.962-.345,1.312-1.3,1.314-1.59,0-3.18,0-4.769,0h-.5c0,1,0,1.946,0,2.887,0,.57.121.686.7.686,3.076,0,6.153.025,9.229-.015a1.864,1.864,0,0,1,1.992,1.175v2.3a1.713,1.713,0,0,1-1.671,1.224v.561q0,7.463,0,14.926a1.133,1.133,0,0,1-1.264,1.29q-.817.01-1.634,0a1.13,1.13,0,0,1-1.261-1.251q-.007-2.318,0-4.637c0-.533.226-.82.639-.832.433-.013.683.286.685.834q0,2.031,0,4.063v.477h1.485V22.826H128.73v.51q0,3.356,0,6.712a2.036,2.036,0,0,1-.015.44.657.657,0,0,1-1.3-.033,2.581,2.581,0,0,1-.009-.4q0-3.378,0-6.756v-.471h-4.352c0,.139-.006.241,0,.342.1,1.6.218,3.2.3,4.8a3.3,3.3,0,0,1-1.546,3.079.432.432,0,0,0-.2.574c.514,1.855,1.011,3.715,1.517,5.572.369,1.353.075,1.972-1.2,2.5h-.53a2.08,2.08,0,0,1-1.429-1.475c-.742-2.073-1.537-4.128-2.293-6.2a.5.5,0,0,0-.572-.392c-.617.024-1.237.033-1.853,0a.615.615,0,0,0-.726.486c-.726,2.017-1.506,4.014-2.226,6.033a2.2,2.2,0,0,1-1.417,1.546h-.618c-1.265-.6-1.513-1.147-1.141-2.531.5-1.858,1-3.717,1.513-5.572a.392.392,0,0,0-.191-.53,3.355,3.355,0,0,1-1.574-3.113c.043-1.029.142-2.055.211-3.082.046-.683.083-1.366.124-2.042h-5.59v.6q0,7.373,0,14.746c0,1.014-.4,1.411-1.423,1.411H91.555c-1.054,0-1.435-.382-1.436-1.433q0-7.417,0-14.835v-.548A1.768,1.768,0,0,1,88,21.587v-2.3a1.844,1.844,0,0,1,1.993-1.174c1.824.05,3.651.015,5.476.014.135,0,.27-.014.449-.023a5.393,5.393,0,0,1-.12-7.515,5.315,5.315,0,0,1,6.892-.653,5.147,5.147,0,0,1,2.091,3.118,5.324,5.324,0,0,1-1.441,5.03.744.744,0,0,0,.137.04c2.311,0,4.623.008,6.934-.008a.721.721,0,0,0,.457-.256,6.662,6.662,0,0,1,4-2.32c.513-.086.631-.291.563-.733-.011-.07-.022-.139-.04-.252H114.9c-1.619,0-3.239.006-4.858,0a1.053,1.053,0,0,1-1.181-1.17c-.008-1.369-.005-2.738,0-4.107,0-.51.262-.819.667-.819s.652.3.655.821,0,1.048,0,1.573H126.52V4.332H110.186c0,.531,0,1.03,0,1.528s-.25.781-.641.79c-.409.01-.674-.3-.681-.8s0-1.03,0-1.546c0-.955.376-1.325,1.346-1.327,1.575,0,3.15,0,4.726,0,.156,0,.311-.014.472-.022a11.7,11.7,0,0,1,.088-1.183C115.564,1.346,115.919,1.162,116.273,1Zm-.158,29.318c1.206,0,2.413.005,3.619,0a2.126,2.126,0,0,0,2.292-2.4c-.054-1.072-.125-2.144-.2-3.215-.082-1.144-.1-2.3-.286-3.427a5.512,5.512,0,0,0-10.931.691c-.126,1.967-.266,3.933-.408,5.9a2.164,2.164,0,0,0,2.3,2.454C113.7,30.323,114.909,30.318,116.116,30.318ZM109.8,19.455H89.945c-.088,0-.177.005-.265,0-.271-.018-.364.118-.357.375a8.953,8.953,0,0,1,0,1.1c-.043.45.158.547.564.543,1.6-.016,3.209-.007,4.813-.007.721,0,1.443-.01,2.163.006a.635.635,0,0,1,.7.758c-.073.432-.384.559-.775.56q-1.81,0-3.621,0H91.468v3.613c.506,0,1,0,1.5,0,.411,0,.934.129,1.2-.073s.26-.739.363-1.132c.137-.525.319-.679.866-.682.927,0,1.855,0,2.782,0,.746,0,.885.111,1.052.835.244,1.054.244,1.054,1.335,1.054h1.7V22.794h-.493c-.559,0-1.119.012-1.678-.006a.645.645,0,0,1-.707-.676c.008-.38.258-.613.7-.64.132-.008.265,0,.4,0h4.725c1.236,0,2.473.006,3.709-.008.144,0,.384-.087.414-.184C109.51,20.691,109.64,20.091,109.8,19.455ZM91.444,38.234h10.823V33.36H91.444v4.874Zm8.181-20.061a6.143,6.143,0,0,0,1.431-.159,3.994,3.994,0,1,0-5.4-3.831A3.932,3.932,0,0,0,96.8,17.1,3.215,3.215,0,0,0,99.625,18.173Zm2.64,13.8V27.759h-10.8v4.212h2.78c.1-.413.192-.8.286-1.184.126-.512.3-.662.829-.666q1.5-.012,3,0c.528,0,.709.156.835.664.1.4.189.8.281,1.192Zm20.712-10.508h5c1.148,0,2.3-.009,3.445,0,.352,0,.522-.1.492-.479a5.477,5.477,0,0,1,0-.971c.044-.443-.11-.582-.565-.579-2.841.019-5.683.009-8.524.011-.137,0-.274.016-.4.024Zm3.547-9.228H110.211V13.2h16.313Zm-13.251,19.4c-.338,0-.646.02-.949-.006-.261-.023-.353.078-.417.32q-.772,2.916-1.572,5.824c-.063.231-.12.488.165.533.128.02.375-.2.436-.356.766-2,1.508-4.011,2.256-6.02C113.221,31.857,113.237,31.773,113.273,31.641Zm5.662,0c.828,2.215,1.618,4.344,2.429,6.464.042.11.264.151.4.224.052-.164.181-.349.144-.49q-.778-2.979-1.6-5.946a.408.408,0,0,0-.284-.241C119.69,31.619,119.352,31.638,118.935,31.638Zm1.029-15.195V14.6h-3.182c-.008.155-.007.272-.022.386-.047.343.066.538.445.515a.571.571,0,0,1,.216.042Q118.694,15.99,119.964,16.443Zm0-14.055h-3.2l.026.546h3.178Zm-24.3,23.979h2.443l-.135-.523c-.605,0-1.19.023-1.772-.008C95.808,25.814,95.619,25.933,95.664,26.367Zm0,5.588h2.412c-.066-.506-.066-.508-.5-.51-.468,0-.937.023-1.4-.008C95.769,31.41,95.615,31.57,95.662,31.955Z" transform="translate(-88 -1)" fill="#b3036a"/></g></g><rect width="50" height="50" transform="translate(45 67)" fill="none"/></g></svg>