<svg xmlns="http://www.w3.org/2000/svg" width="50" height="50" viewBox="0 0 50 50"><g transform="translate(-45 -485)"><g transform="translate(-1623.01 -165.118)"><g transform="translate(1675 659)"><path d="M1711.02,668.357a2.319,2.319,0,0,1-1.461,1.441c-1.429.617-2.834,1.289-4.255,1.924a.411.411,0,0,0-.286.445c.009,2.485-.02,4.971.015,7.456a4.188,4.188,0,0,1-1.514,3.336,10.59,10.59,0,0,1-4.509,2.271,21.769,21.769,0,0,1-14.125-.77c-.073-.03-.151-.047-.275-.085,0,.346-.012.66.008.971a.325.325,0,0,0,.175.212,2.406,2.406,0,0,1-.377,4.64c-.021,0-.039.024-.059.037h-.7l-.264-.083a2.335,2.335,0,0,1-1.75-1.954,2.061,2.061,0,0,1,1.033-2.316,1.239,1.239,0,0,0,.73-1.484.271.271,0,0,1,0-.07,1.013,1.013,0,0,0-.509-1.069,4.355,4.355,0,0,1-1.915-3.848c.07-2.4.014-4.806.024-7.21a.459.459,0,0,0-.317-.5c-1.411-.628-2.8-1.3-4.223-1.908a2.311,2.311,0,0,1-1.463-1.439v-.7a2.374,2.374,0,0,1,1.469-1.431c3.4-1.528,6.786-3.1,10.187-4.627,1.968-.886,3.954-1.732,5.932-2.6h.844c.351.12.715.212,1.051.364,5.024,2.283,10.041,4.582,15.069,6.856a2.392,2.392,0,0,1,1.467,1.433Zm-25.624,4.183c2.334,1.063,4.6,2.1,6.873,3.125a1.951,1.951,0,0,0,1.668-.071q7.715-3.519,15.431-7.035c.25-.114.456-.259.448-.564-.008-.287-.209-.421-.447-.529q-7.7-3.507-15.4-7.02a2.157,2.157,0,0,0-1.9-.011q-7.7,3.516-15.4,7.019c-.246.112-.468.243-.47.549,0,.324.23.453.489.571q3.516,1.6,7.027,3.208a.566.566,0,0,0,.555-.019c1.73-.885,3.466-1.759,5.2-2.638a2.56,2.56,0,0,0,.222-.141,1.876,1.876,0,0,1,.6-2.56,4.1,4.1,0,0,1,2.117-.778,4.629,4.629,0,0,1,3.31.773,1.871,1.871,0,0,1,.815,2.081,2.281,2.281,0,0,1-1.268,1.389,4.986,4.986,0,0,1-4.283.1.614.614,0,0,0-.589.008c-.766.4-1.543.788-2.315,1.18Zm18.425-.12c-.176.073-.293.119-.408.171-2.949,1.345-5.9,2.683-8.845,4.042a3.493,3.493,0,0,1-3.111,0c-2.153-1-4.321-1.976-6.483-2.96-.1-.047-.208-.086-.328-.135a1.085,1.085,0,0,0-.036.175q0,4.536.006,9.073a.433.433,0,0,0,.2.311,9.132,9.132,0,0,0,1.148.525,21.089,21.089,0,0,0,12.988.373,9.466,9.466,0,0,0,3.708-1.858,3.068,3.068,0,0,0,1.165-2.515c-.037-1.945-.01-3.892-.01-5.837Zm-21.6,0c-.009.129-.018.2-.018.266q0,3.584,0,7.168a2.493,2.493,0,0,0,.049.488,2.878,2.878,0,0,0,1.152,1.814v-3.722c0-1.722,0-3.444-.007-5.165a.5.5,0,0,0-.152-.376C1682.934,672.712,1682.594,672.584,1682.218,672.416Zm10.746-3.208a3.443,3.443,0,0,0,1.969-.514c.627-.418.624-.936.009-1.365a3.859,3.859,0,0,0-3.841-.013c-.644.438-.652.95-.007,1.382A3.345,3.345,0,0,0,1692.964,669.208ZM1684,686.629a1.183,1.183,0,0,0-1.189,1.209,1.2,1.2,0,0,0,2.394-.015A1.183,1.183,0,0,0,1684,686.629Z" transform="translate(-1675 -659)" fill="#b3036a"/></g></g><rect width="50" height="50" transform="translate(45 485)" fill="none"/></g></svg>