<svg xmlns="http://www.w3.org/2000/svg" width="50" height="50" viewBox="0 0 50 50"><g transform="translate(-45 -275)"><g transform="translate(11.237 -263.854)"><g transform="translate(41.786 543.767)"><path d="M176.064,633.762a7.318,7.318,0,0,1-.965-.4,2.5,2.5,0,0,1-1.306-2.224c-.02-2.745-.035-5.49.01-8.234a10.567,10.567,0,0,1,1.292-4.762,21.591,21.591,0,0,0,2.429-7.151c.221-1.64.286-3.3.424-4.981-.146.023-.183.021-.187.031a18.617,18.617,0,0,1-2.7,4.36,1.041,1.041,0,0,1-.7.366c-.828.045-1.66.024-2.491.015-.7-.008-.989-.523-.631-1.117.567-.939,1.168-1.858,1.725-2.8a10.811,10.811,0,0,0,1.465-4.865h-1.716c-.753,0-.957-.2-.958-.942,0-.76,0-1.52,0-2.28,0-.584.24-.831.813-.831,3.575,0,7.151-.018,10.726.006a4.544,4.544,0,0,1,4.507,4.362c.016.555-.155.773-.688.874a1.537,1.537,0,0,0-1.332,1.595c-.006.76-.01,1.52,0,2.28a2.6,2.6,0,0,0,.116.659c.921,3.2,1.884,6.389,2.753,9.6a35.528,35.528,0,0,1,.6,3.571c.02.124.05.246.075.369v10.223c-.095.259-.169.529-.288.776a2.866,2.866,0,0,1-1.993,1.5Zm3.165-25.673c-.112,1.016-.188,2-.334,2.969a24.273,24.273,0,0,1-2.6,7.715,9.9,9.9,0,0,0-1.156,4.663q0,3.738,0,7.476a1.366,1.366,0,0,0,1.491,1.5q4.921,0,9.841,0a1.369,1.369,0,0,0,1.509-1.523q0-4.16,0-8.321a18.015,18.015,0,0,0-.573-4.722c-.612-2.251-1.276-4.488-1.921-6.729-.291-1.01-.589-2.018-.884-3.025Zm7.167-6.13c-.028-.137-.042-.247-.073-.353a3.18,3.18,0,0,0-3.038-2.311c-2.407-.014-4.813,0-7.22,0a1.584,1.584,0,0,0-.234.034v1.268c.044.02.069.04.093.04q.823.006,1.646.008c.742,0,.943.205.943.957,0,.8,0,1.594,0,2.422,1.962,0,3.873,0,5.784-.008a.353.353,0,0,0,.266-.186A3.016,3.016,0,0,1,186.4,601.958Zm-13.317,7.47c.265,0,.533.013.8-.006a.478.478,0,0,0,.322-.132,14.242,14.242,0,0,0,2.509-4.363,9.822,9.822,0,0,0,.444-2.914h-1.2a34.823,34.823,0,0,1-1.032,3.85A35.622,35.622,0,0,1,173.078,609.429Zm6.131-2.733h5.185v-1.3h-5.185Zm-4.767-7.386H173.13v1.3h1.312Z" transform="translate(-160.161 -593.356)" fill="#b3036a"/><path d="M121.423,615.587h-1.585v-1.312h1.585Z" transform="translate(-113.243 -608.318)" fill="#b3036a"/><path d="M138.968,593.572l.843-1.052,1.287,1.022-.843,1.058Z" transform="translate(-130.757 -588.401)" fill="#b3036a"/><path d="M79.352,545.85l-1.287-1.03.843-1.054,1.282,1.022Z" transform="translate(-75 -543.767)" fill="#b3036a"/><path d="M109.822,570.214l-1.282-1.026.84-1.055,1.289,1.026Z" transform="translate(-102.9 -566.074)" fill="#b3036a"/><path d="M108.5,652.25l1.286-1.03.847,1.053-1.278,1.026Z" transform="translate(-102.867 -642.141)" fill="#b3036a"/><path d="M79.367,675.57l.843,1.055-1.282,1.027-.846-1.052Z" transform="translate(-75.015 -664.434)" fill="#b3036a"/><path d="M138.985,627.878l1.282-1.031.847,1.053-1.286,1.027Z" transform="translate(-130.773 -619.828)" fill="#b3036a"/><path d="M41.786,614.179h1.59v1.309h-1.59Z" transform="translate(-41.786 -608.23)" fill="#b3036a"/><path d="M82.45,615.7H80.857v-1.3H82.45Z" transform="translate(-77.556 -608.433)" fill="#b3036a"/><path d="M251.777,867.435c0,1.281,0,2.562,0,3.843a1.369,1.369,0,0,1-1.511,1.521q-2.893,0-5.786,0a1.367,1.367,0,0,1-1.488-1.5q0-3.906,0-7.813a1.367,1.367,0,0,1,1.49-1.5q2.914,0,5.828,0a1.36,1.36,0,0,1,1.467,1.479C251.78,864.788,251.777,866.112,251.777,867.435Zm-7.4-4.08v8.058h6.03v-8.058Z" transform="translate(-225.99 -835.097)" fill="#b3036a"/><path d="M313.961,753.166c0,.491-.165.721-.481.812a.586.586,0,0,1-.771-.349c-.322-.958-.609-1.928-.874-2.9a.592.592,0,0,1,.431-.729.573.573,0,0,1,.788.3C313.4,751.285,313.692,752.3,313.961,753.166Z" transform="translate(-288.998 -732.526)" fill="#b3036a"/><path d="M329.485,806.015c.593.028.64.535.786.968a.727.727,0,0,1-.253.962.628.628,0,0,1-.906-.237,3.679,3.679,0,0,1-.289-1A.641.641,0,0,1,329.485,806.015Z" transform="translate(-304.566 -783.858)" fill="#b3036a"/></g></g><rect width="50" height="50" transform="translate(45 275)" fill="none"/></g></svg>