<svg xmlns="http://www.w3.org/2000/svg" width="50" height="50" viewBox="0 0 50 50"><g transform="translate(-45 -343)"><g transform="translate(-499 -204)"><g transform="translate(553 557)"><path d="M575.438,589H562.563a.3.3,0,0,0-.079-.046,3.309,3.309,0,0,1-2.811-3.445c0-1.385,0-2.77,0-4.156V581h-.383c-1,0-2,.01-3,0a3.323,3.323,0,0,1-3.126-2.31c-.06-.185-.109-.374-.164-.561v-10.25c.016-.025.044-.049.047-.076a3.352,3.352,0,0,1,3.46-2.8c.937.024,1.875,0,2.812,0h.352c0-.169,0-.292,0-.416,0-1.469-.008-2.937.012-4.405a3.141,3.141,0,0,1,1.034-2.268,3.748,3.748,0,0,1,1.844-.911h12.875c.016.012.031.032.049.036a3.331,3.331,0,0,1,2.841,3.611q0,2,0,4V565h.384c1,0,2-.01,3,0a3.316,3.316,0,0,1,3.125,2.311c.06.185.11.373.164.56v10.25a.27.27,0,0,0-.048.076,3.322,3.322,0,0,1-3.459,2.8h-3.164c0,.169,0,.292,0,.416,0,1.469.016,2.937-.013,4.405a3.288,3.288,0,0,1-2.372,3.043C575.775,588.912,575.606,588.955,575.438,589Zm2.891-9.328h.38q1.375,0,2.75,0a2.037,2.037,0,0,0,2.214-2.217q0-4.452,0-8.9a2.034,2.034,0,0,0-2.209-2.222q-2.093,0-4.185,0-10.388,0-20.776,0a2.021,2.021,0,0,0-2.172,2.163q0,4.515,0,9.03a2.021,2.021,0,0,0,2.155,2.15c.958,0,1.916,0,2.874,0,.1,0,.2-.013.313-.021v-.379q0-2,0-4c0-.751.192-.944.941-.944h16.809c.7,0,.906.2.906.917q0,2.015,0,4.031ZM561,575.685v.346q0,4.733,0,9.467a2.017,2.017,0,0,0,2.158,2.174q5.843,0,11.685,0A2.016,2.016,0,0,0,577,585.5q0-4.733,0-9.467v-.344Zm0-10.707h16c0-1.49,0-2.958,0-4.426a2.029,2.029,0,0,0-2.235-2.223H567.8c-1.573,0-3.146-.006-4.719,0a1.971,1.971,0,0,0-2.063,1.846C560.976,561.768,561,563.362,561,564.977Z" transform="translate(-553 -557)" fill="#b3036a"/><path d="M728.4,942.285c-1.3,0-2.6,0-3.9,0a.667.667,0,0,1-.73-.5.659.659,0,0,1,.658-.822c.51-.012,1.02,0,1.529,0h6.181c.083,0,.167,0,.25,0a.675.675,0,0,1,.689.66.657.657,0,0,1-.68.663c-.52.011-1.04,0-1.561,0Z" transform="translate(-713.08 -916.957)" fill="#b3036a"/><path d="M728.483,983.735H732.2c.1,0,.208,0,.312.005a.658.658,0,0,1,.633.645.671.671,0,0,1-.61.673,1.985,1.985,0,0,1-.218,0h-7.679c-.062,0-.125,0-.187,0a.656.656,0,0,1-.626-.683.624.624,0,0,1,.634-.634c.791-.014,1.582-.007,2.372-.007Z" transform="translate(-713.145 -957.064)" fill="#b3036a"/><path d="M725.8,899.578c-.375,0-.75,0-1.125,0-.561,0-.862-.241-.858-.68s.3-.662.842-.663q1.156,0,2.312,0c.523,0,.841.263.835.679s-.32.662-.85.664C726.575,899.58,726.189,899.578,725.8,899.578Z" transform="translate(-713.145 -876.906)" fill="#b3036a"/></g></g><rect width="50" height="50" transform="translate(45 343)" fill="none"/></g></svg>