<svg xmlns="http://www.w3.org/2000/svg" width="50" height="50" viewBox="0 0 50 50"><g transform="translate(-45 -204)"><g transform="translate(-1662.09 211.75)"><g transform="translate(1717 1)"><path d="M1717,32.865V8.871c.025-.25.045-.5.076-.75a8.6,8.6,0,0,1,2.346-5.036c.691-.719,1.43-1.392,2.148-2.085h24.756a.931.931,0,0,1,.508.635V28.8a4.5,4.5,0,0,1-.456.664q-1.756,1.788-3.538,3.551c-.177.176-.384.323-.576.483h-24.692A.845.845,0,0,1,1717,32.865Zm1.4-16.947V32.132h6.715V15.918Zm8.122,16.232h.329c2.02,0,4.041-.006,6.061.007.3,0,.369-.084.368-.372q-.012-7.758-.007-15.517c0-.113-.01-.225-.016-.344h-6.736Zm8.134-16.235V32.133h6.721V15.916ZM1745.454,3.35a7.562,7.562,0,0,0-2.689,5.911q0,10.77,0,21.541c0,.1.01.2.018.346.112-.1.189-.173.261-.245.725-.725,1.444-1.457,2.178-2.173a.738.738,0,0,0,.236-.582q-.008-12.2,0-24.4Zm-9.1-.981c-.092-.01-.13-.018-.168-.018-1.945,0-3.89,0-5.835.007a.575.575,0,0,0-.347.168c-.427.409-.844.83-1.259,1.252a7.338,7.338,0,0,0-2.227,5.159c-.017.888-.008,1.776-.009,2.663a1.645,1.645,0,0,0,.026.211h6.745c0-.829,0-1.631,0-2.433a8.826,8.826,0,0,1,2.416-6.314C1735.9,2.843,1736.108,2.626,1736.351,2.369Zm-11.21,9.45c0-.527-.007-1.023,0-1.519.013-.729-.012-1.464.068-2.186a8.705,8.705,0,0,1,2.7-5.416,1.908,1.908,0,0,1,.345-.216c-.12-.114-.148-.129-.175-.129-1.957,0-3.913,0-5.87,0a.53.53,0,0,0-.322.154c-.434.418-.858.847-1.282,1.276a6.868,6.868,0,0,0-2.089,4c-.144,1.169-.1,2.361-.139,3.543-.005.156,0,.312,0,.487ZM1744.5,2.464l-.078-.088a.307.307,0,0,0-.082-.024c-1.956,0-3.912,0-5.868,0a.532.532,0,0,0-.321.158c-.434.418-.858.847-1.282,1.275a7,7,0,0,0-2.118,4.158c-.126,1.1-.079,2.215-.107,3.323,0,.177,0,.354,0,.567h6.338c.425,0,.421,0,.427-.428.014-1.078-.037-2.163.064-3.233a8.629,8.629,0,0,1,2.679-5.458A2.879,2.879,0,0,1,1744.5,2.464Zm-26.1,12.052h6.727V13.211h-6.727Zm8.128,0h6.736V13.2h-6.736Zm8.129-.009h6.735v-1.3h-6.735Z" transform="translate(-1717 -1)" fill="#b3036a"/><path d="M1762.373,326.455a1.986,1.986,0,0,1-1.915-2.594,9.229,9.229,0,0,1,1.389-2.545.652.652,0,0,1,1.047,0,9.208,9.208,0,0,1,1.39,2.545A1.985,1.985,0,0,1,1762.373,326.455Zm.047-3.424h-.1c-.2.413-.414.817-.581,1.241a.571.571,0,0,0,.26.711.613.613,0,0,0,.738,0,.571.571,0,0,0,.26-.71C1762.832,323.848,1762.616,323.444,1762.42,323.031Z" transform="translate(-1757.611 -300.735)" fill="#b3036a"/><path d="M1890.373,326.471a1.986,1.986,0,0,1-1.92-2.59,9.232,9.232,0,0,1,1.388-2.546.658.658,0,0,1,1.069.016,9.418,9.418,0,0,1,1.381,2.55A1.988,1.988,0,0,1,1890.373,326.471Zm.041-3.421-.1.011c-.192.4-.4.785-.57,1.191a.591.591,0,0,0,.223.727.638.638,0,0,0,.791.006.587.587,0,0,0,.232-.723C1890.822,323.848,1890.608,323.453,1890.414,323.05Z" transform="translate(-1877.482 -300.752)" fill="#b3036a"/><path d="M2018.323,326.475a1.986,1.986,0,0,1-1.906-2.578,9.347,9.347,0,0,1,1.384-2.549.658.658,0,0,1,1.068,0,9.309,9.309,0,0,1,1.385,2.548A1.987,1.987,0,0,1,2018.323,326.475Zm.015-3.5c-.231.463-.432.831-.6,1.213a.633.633,0,0,0,.187.793.655.655,0,0,0,.818,0,.625.625,0,0,0,.193-.79C2018.769,323.806,2018.569,323.437,2018.338,322.97Z" transform="translate(-1997.326 -300.755)" fill="#b3036a"/></g></g><rect width="50" height="50" transform="translate(45 204)" fill="none"/></g></svg>