<svg xmlns="http://www.w3.org/2000/svg" width="35.384" height="32.094" viewBox="0 0 35.384 32.094"><g transform="translate(0 -22.543)"><path d="M25.069,22.543a10.2,10.2,0,0,0-4.687,1.124,10.4,10.4,0,0,0-2.69,1.983A10.4,10.4,0,0,0,15,23.667a10.2,10.2,0,0,0-4.687-1.124A10.327,10.327,0,0,0,0,32.858c0,4.029,2.128,8.307,6.324,12.717A61.147,61.147,0,0,0,17.1,54.254l.594.384.594-.384A61.147,61.147,0,0,0,29.06,45.576c4.2-4.41,6.324-8.689,6.324-12.717A10.327,10.327,0,0,0,25.069,22.543Zm2.406,21.524a57.875,57.875,0,0,1-9.783,7.961,57.876,57.876,0,0,1-9.783-7.961c-3.8-3.989-5.721-7.761-5.721-11.209a8.127,8.127,0,0,1,14.628-4.875l.875,1.165.875-1.165A8.127,8.127,0,0,1,33.2,32.858C33.2,36.306,31.27,40.077,27.475,44.067Z" fill="#b3036a"/></g></svg>