<svg xmlns="http://www.w3.org/2000/svg" width="17.239" height="15.323" viewBox="0 0 17.239 15.323">
  <path id="Icon_awesome-shopping-cart" data-name="Icon awesome-shopping-cart" d="M15.806,9.018,17.22,2.793a.718.718,0,0,0-.7-.877H4.765L4.49.574A.718.718,0,0,0,3.787,0H.718A.718.718,0,0,0,0,.718V1.2a.718.718,0,0,0,.718.718H2.81l2.1,10.278a1.676,1.676,0,1,0,2.007.256h6.274a1.676,1.676,0,1,0,1.9-.311l.165-.727a.718.718,0,0,0-.7-.877H6.528l-.2-.958h8.773A.718.718,0,0,0,15.806,9.018Z" fill="#fff"/>
</svg>
