<?xml version="1.0" encoding="UTF-8"?>
<!DOCTYPE svg PUBLIC "-//W3C//DTD SVG 1.1//EN" "http://www.w3.org/Graphics/SVG/1.1/DTD/svg11.dtd">
<!-- Creator: CorelDRAW 2020 (64-Bit) -->
<svg xmlns="http://www.w3.org/2000/svg" xml:space="preserve" width="15.0706mm" height="4.8258mm" version="1.1" style="shape-rendering:geometricPrecision; text-rendering:geometricPrecision; image-rendering:optimizeQuality; fill-rule:evenodd; clip-rule:evenodd"
viewBox="0 0 1507.06 482.58"
 xmlns:xlink="http://www.w3.org/1999/xlink"
 xmlns:xodm="http://www.corel.com/coreldraw/odm/2003">
 <defs>
  <style type="text/css">
   <![CDATA[
    .fil1 {fill:#B3036A}
    .fil0 {fill:#B3036A;fill-rule:nonzero}
   ]]>
  </style>
 </defs>
 <g id="Слой_x0020_1">
  <metadata id="CorelCorpID_0Corel-Layer"/>
  <g id="_1708137004160">
   <path class="fil0" d="M2.47 404.29l7.32 0 0 48.29 32.46 -48.29 8 0 0 60.98 -7.33 0 0 -48.16 -32.38 48.16 -8.07 0 0 -60.98zm60.11 16.78l7.49 0 0 18.4 20.78 0 0 -18.4 7.5 0 0 44.2 -7.5 0 0 -19.59 -20.78 0 0 19.59 -7.49 0 0 -44.2zm43.11 0l35.77 0 0 6.22 -14.14 0 0 37.98 -7.49 0 0 -37.98 -14.14 0 0 -6.22zm72.12 29.89l7.75 1.03c-1.21,4.49 -3.47,8 -6.76,10.48 -3.29,2.49 -7.49,3.74 -12.62,3.74 -6.44,0 -11.55,-1.99 -15.33,-5.96 -3.77,-3.96 -5.66,-9.54 -5.66,-16.71 0,-7.41 1.9,-13.17 5.72,-17.26 3.82,-4.1 8.77,-6.15 14.86,-6.15 5.89,0 10.7,2.01 14.44,6.02 3.73,4.02 5.6,9.67 5.6,16.95 0,0.44 -0.01,1.11 -0.04,1.99l-32.92 0c0.29,4.84 1.65,8.56 4.12,11.13 2.46,2.56 5.54,3.86 9.21,3.86 2.74,0 5.08,-0.73 7.01,-2.18 1.95,-1.44 3.48,-3.76 4.62,-6.94zm-24.53 -12.01l24.61 0c-0.32,-3.71 -1.27,-6.5 -2.82,-8.35 -2.37,-2.89 -5.47,-4.33 -9.26,-4.33 -3.43,0 -6.31,1.15 -8.65,3.45 -2.33,2.29 -3.62,5.37 -3.88,9.23zm41.74 43.27l0 -61.15 6.82 0 0 5.81c1.6,-2.25 3.42,-3.94 5.45,-5.06 2.01,-1.12 4.47,-1.69 7.35,-1.69 3.78,0 7.1,0.97 9.98,2.91 2.88,1.93 5.05,4.67 6.53,8.19 1.46,3.54 2.2,7.4 2.2,11.61 0,4.5 -0.81,8.56 -2.43,12.18 -1.62,3.61 -3.97,6.38 -7.07,8.31 -3.08,1.91 -6.33,2.88 -9.73,2.88 -2.5,0 -4.75,-0.53 -6.72,-1.58 -1.99,-1.05 -3.6,-2.37 -4.88,-3.97l0 21.56 -7.5 0zm6.82 -38.78c0,5.66 1.15,9.85 3.43,12.56 2.3,2.71 5.08,4.08 8.35,4.08 3.32,0 6.16,-1.41 8.52,-4.22 2.37,-2.81 3.54,-7.15 3.54,-13.04 0,-5.62 -1.15,-9.83 -3.46,-12.62 -2.31,-2.8 -5.07,-4.19 -8.27,-4.19 -3.18,0 -5.99,1.49 -8.44,4.46 -2.45,2.98 -3.67,7.29 -3.67,12.97zm40.55 -22.37l7.49 0 0 18.4 20.78 0 0 -18.4 7.5 0 0 44.2 -7.5 0 0 -19.59 -20.78 0 0 19.59 -7.49 0 0 -44.2zm77.17 29.89l7.75 1.03c-1.2,4.49 -3.46,8 -6.75,10.48 -3.3,2.49 -7.5,3.74 -12.62,3.74 -6.45,0 -11.56,-1.99 -15.33,-5.96 -3.78,-3.96 -5.66,-9.54 -5.66,-16.71 0,-7.41 1.9,-13.17 5.72,-17.26 3.81,-4.1 8.77,-6.15 14.86,-6.15 5.89,0 10.7,2.01 14.43,6.02 3.73,4.02 5.61,9.67 5.61,16.95 0,0.44 -0.02,1.11 -0.04,1.99l-32.92 0c0.28,4.84 1.65,8.56 4.12,11.13 2.45,2.56 5.53,3.86 9.21,3.86 2.74,0 5.08,-0.73 7.01,-2.18 1.94,-1.44 3.48,-3.76 4.61,-6.94zm-24.52 -12.01l24.61 0c-0.33,-3.71 -1.28,-6.5 -2.83,-8.35 -2.37,-2.89 -5.46,-4.33 -9.25,-4.33 -3.44,0 -6.32,1.15 -8.66,3.45 -2.33,2.29 -3.62,5.37 -3.87,9.23zm35 -17.88l35.77 0 0 6.22 -14.14 0 0 37.98 -7.49 0 0 -37.98 -14.14 0 0 -6.22zm39.94 25.89l0 -7.49 23.16 0 0 7.49 -23.16 0zm31.6 -25.89l11.52 0 11.68 35.37 12.93 -35.37 10.71 0 0 44.2 -7.5 0 0 -35.58 -13.02 35.58 -6.69 0 -12.31 -37.29 0 37.29 -7.32 0 0 -44.2zm87.16 38.67c-2.78,2.37 -5.46,4.03 -8.03,5.01 -2.57,0.98 -5.33,1.46 -8.28,1.46 -4.85,0 -8.59,-1.18 -11.2,-3.55 -2.61,-2.36 -3.92,-5.38 -3.92,-9.06 0,-2.15 0.5,-4.13 1.48,-5.92 0.99,-1.78 2.29,-3.2 3.88,-4.28 1.6,-1.08 3.39,-1.9 5.39,-2.46 1.48,-0.38 3.7,-0.75 6.67,-1.12 6.05,-0.71 10.52,-1.57 13.37,-2.57 0.03,-1.02 0.04,-1.67 0.04,-1.94 0,-3.04 -0.71,-5.18 -2.12,-6.43 -1.92,-1.69 -4.77,-2.53 -8.55,-2.53 -3.53,0 -6.15,0.63 -7.82,1.86 -1.69,1.24 -2.92,3.42 -3.73,6.57l-7.33 -1.02c0.67,-3.14 1.76,-5.68 3.3,-7.61 1.53,-1.93 3.74,-3.4 6.64,-4.45 2.88,-1.04 6.24,-1.57 10.05,-1.57 3.77,0 6.85,0.44 9.22,1.34 2.36,0.89 4.11,2 5.21,3.35 1.11,1.35 1.89,3.05 2.34,5.11 0.25,1.28 0.37,3.57 0.37,6.88l0 9.94c0,6.94 0.16,11.32 0.47,13.18 0.3,1.86 0.92,3.64 1.83,5.34l-7.83 0c-0.75,-1.57 -1.24,-3.42 -1.45,-5.53zm-0.6 -16.61c-2.72,1.11 -6.81,2.04 -12.26,2.81 -3.09,0.44 -5.28,0.94 -6.56,1.49 -1.27,0.55 -2.25,1.36 -2.95,2.41 -0.7,1.07 -1.05,2.25 -1.05,3.55 0,1.97 0.75,3.63 2.27,4.95 1.52,1.32 3.73,1.99 6.64,1.99 2.89,0 5.45,-0.62 7.71,-1.89 2.24,-1.25 3.9,-2.96 4.95,-5.13 0.81,-1.69 1.21,-4.18 1.21,-7.46l0.04 -2.72zm19.1 -22.06l25.46 0 0 6.22 -17.97 0 0 37.98 -7.49 0 0 -44.2zm58.05 38.67c-2.78,2.37 -5.47,4.03 -8.04,5.01 -2.56,0.98 -5.32,1.46 -8.27,1.46 -4.85,0 -8.59,-1.18 -11.2,-3.55 -2.61,-2.36 -3.92,-5.38 -3.92,-9.06 0,-2.15 0.5,-4.13 1.48,-5.92 0.99,-1.78 2.28,-3.2 3.87,-4.28 1.61,-1.08 3.4,-1.9 5.4,-2.46 1.47,-0.38 3.7,-0.75 6.67,-1.12 6.05,-0.71 10.52,-1.57 13.37,-2.57 0.03,-1.02 0.04,-1.67 0.04,-1.94 0,-3.04 -0.71,-5.18 -2.13,-6.43 -1.91,-1.69 -4.77,-2.53 -8.54,-2.53 -3.54,0 -6.15,0.63 -7.82,1.86 -1.69,1.24 -2.93,3.42 -3.73,6.57l-7.33 -1.02c0.67,-3.14 1.76,-5.68 3.29,-7.61 1.54,-1.93 3.75,-3.4 6.65,-4.45 2.88,-1.04 6.24,-1.57 10.05,-1.57 3.77,0 6.85,0.44 9.22,1.34 2.36,0.89 4.1,2 5.21,3.35 1.11,1.35 1.89,3.05 2.34,5.11 0.24,1.28 0.37,3.57 0.37,6.88l0 9.94c0,6.94 0.16,11.32 0.47,13.18 0.3,1.86 0.92,3.64 1.83,5.34l-7.83 0c-0.76,-1.57 -1.24,-3.42 -1.45,-5.53zm-0.6 -16.61c-2.72,1.11 -6.81,2.04 -12.26,2.81 -3.1,0.44 -5.28,0.94 -6.56,1.49 -1.28,0.55 -2.26,1.36 -2.95,2.41 -0.7,1.07 -1.05,2.25 -1.05,3.55 0,1.97 0.75,3.63 2.27,4.95 1.52,1.32 3.73,1.99 6.64,1.99 2.88,0 5.45,-0.62 7.71,-1.89 2.24,-1.25 3.9,-2.96 4.95,-5.13 0.81,-1.69 1.21,-4.18 1.21,-7.46l0.04 -2.72zm27.94 2.13l0 -5.88c3.15,-0.03 5.31,-0.16 6.44,-0.37 1.15,-0.23 2.24,-0.88 3.27,-1.99 1.02,-1.1 1.53,-2.48 1.53,-4.14 0,-2 -0.67,-3.62 -2.02,-4.81 -1.35,-1.21 -3.08,-1.8 -5.22,-1.8 -4.22,0 -7.17,2.47 -8.86,7.41l-7.15 -1.2c2.21,-8.23 7.58,-12.35 16.07,-12.35 4.71,0 8.4,1.28 11.08,3.85 2.68,2.57 4.02,5.64 4.02,9.2 0,3.59 -1.75,6.46 -5.22,8.57 2.22,1.19 3.88,2.71 5.01,4.56 1.1,1.84 1.66,4.03 1.66,6.56 0,3.96 -1.45,7.16 -4.33,9.63 -2.9,2.47 -6.93,3.71 -12.12,3.71 -10.08,0 -15.93,-4.46 -17.53,-13.37l7.06 -1.54c0.64,2.81 1.94,5 3.89,6.55 1.96,1.54 4.19,2.31 6.72,2.31 2.52,0 4.63,-0.71 6.3,-2.14 1.67,-1.42 2.51,-3.24 2.51,-5.45 0,-1.72 -0.52,-3.21 -1.57,-4.49 -1.05,-1.28 -2.17,-2.07 -3.37,-2.38 -1.19,-0.33 -3.35,-0.49 -6.47,-0.49 -0.26,0 -0.82,0.02 -1.7,0.05zm29.25 -24.19l7.5 0 0 33.71 20.82 -33.71 8.05 0 0 44.2 -7.5 0 0 -33.5 -20.79 33.5 -8.08 0 0 -44.2zm47.58 0l7.49 0 0 18.4 20.78 0 0 -18.4 7.5 0 0 44.2 -7.5 0 0 -19.59 -20.78 0 0 19.59 -7.49 0 0 -44.2zm66.77 0l35.77 0 0 6.22 -14.14 0 0 37.98 -7.49 0 0 -37.98 -14.14 0 0 -6.22zm39.16 22.1c0,-8.16 2.27,-14.21 6.83,-18.14 3.79,-3.26 8.43,-4.9 13.89,-4.9 6.06,0 11.03,1.99 14.89,5.97 3.85,3.96 5.78,9.45 5.78,16.45 0,5.67 -0.85,10.13 -2.56,13.38 -1.7,3.25 -4.18,5.78 -7.45,7.58 -3.25,1.8 -6.81,2.7 -10.66,2.7 -6.19,0 -11.18,-1.98 -15,-5.94 -3.82,-3.96 -5.72,-9.66 -5.72,-17.1zm7.66 0.01c0,5.65 1.24,9.88 3.71,12.68 2.48,2.81 5.59,4.22 9.35,4.22 3.72,0 6.82,-1.41 9.3,-4.23 2.47,-2.83 3.7,-7.13 3.7,-12.91 0,-5.45 -1.24,-9.58 -3.73,-12.37 -2.48,-2.81 -5.58,-4.22 -9.27,-4.22 -3.76,0 -6.87,1.39 -9.35,4.19 -2.47,2.79 -3.71,7.01 -3.71,12.64zm42.52 -22.11l17.24 0c4.23,0 7.38,0.36 9.45,1.07 2.06,0.71 3.84,2 5.31,3.88 1.49,1.91 2.23,4.16 2.23,6.8 0,2.12 -0.44,3.96 -1.31,5.53 -0.88,1.57 -2.18,2.89 -3.94,3.94 2.07,0.7 3.79,1.99 5.17,3.89 1.36,1.89 2.04,4.14 2.04,6.74 -0.27,4.19 -1.77,7.3 -4.49,9.31 -2.71,2.03 -6.65,3.04 -11.82,3.04l-19.88 0 0 -44.2zm7.49 18.65l7.95 0c3.16,0 5.35,-0.17 6.53,-0.5 1.19,-0.34 2.25,-1 3.19,-2.02 0.94,-1.01 1.41,-2.23 1.41,-3.65 0,-2.34 -0.83,-3.96 -2.46,-4.89 -1.65,-0.92 -4.46,-1.37 -8.43,-1.37l-8.19 0 0 12.43zm0 19.42l9.84 0c4.23,0 7.13,-0.5 8.71,-1.48 1.58,-0.99 2.4,-2.68 2.48,-5.11 0,-1.4 -0.45,-2.72 -1.36,-3.93 -0.92,-1.21 -2.11,-1.97 -3.57,-2.28 -1.47,-0.33 -3.82,-0.49 -7.06,-0.49l-9.04 0 0 13.29zm65.68 0.6c-2.79,2.37 -5.47,4.03 -8.04,5.01 -2.57,0.98 -5.32,1.46 -8.27,1.46 -4.86,0 -8.59,-1.18 -11.2,-3.55 -2.61,-2.36 -3.92,-5.38 -3.92,-9.06 0,-2.15 0.5,-4.13 1.48,-5.92 0.99,-1.78 2.28,-3.2 3.87,-4.28 1.6,-1.08 3.39,-1.9 5.39,-2.46 1.48,-0.38 3.71,-0.75 6.68,-1.12 6.04,-0.71 10.51,-1.57 13.37,-2.57 0.02,-1.02 0.04,-1.67 0.04,-1.94 0,-3.04 -0.71,-5.18 -2.13,-6.43 -1.92,-1.69 -4.77,-2.53 -8.55,-2.53 -3.53,0 -6.14,0.63 -7.82,1.86 -1.69,1.24 -2.92,3.42 -3.73,6.57l-7.32 -1.02c0.66,-3.14 1.76,-5.68 3.29,-7.61 1.53,-1.93 3.75,-3.4 6.64,-4.45 2.88,-1.04 6.25,-1.57 10.05,-1.57 3.78,0 6.86,0.44 9.23,1.34 2.35,0.89 4.1,2 5.21,3.35 1.1,1.35 1.89,3.05 2.34,5.11 0.24,1.28 0.37,3.57 0.37,6.88l0 9.94c0,6.94 0.15,11.32 0.47,13.18 0.3,1.86 0.92,3.64 1.83,5.34l-7.84 0c-0.75,-1.57 -1.23,-3.42 -1.44,-5.53zm-0.6 -16.61c-2.73,1.11 -6.81,2.04 -12.26,2.81 -3.1,0.44 -5.28,0.94 -6.56,1.49 -1.28,0.55 -2.26,1.36 -2.95,2.41 -0.7,1.07 -1.06,2.25 -1.06,3.55 0,1.97 0.76,3.63 2.28,4.95 1.51,1.32 3.73,1.99 6.64,1.99 2.88,0 5.45,-0.62 7.71,-1.89 2.24,-1.25 3.9,-2.96 4.95,-5.13 0.81,-1.69 1.21,-4.18 1.21,-7.46l0.04 -2.72zm19.09 39.09l0 -61.15 6.81 0 0 5.81c1.61,-2.25 3.42,-3.94 5.45,-5.06 2.02,-1.12 4.47,-1.69 7.36,-1.69 3.77,0 7.09,0.97 9.97,2.91 2.89,1.93 5.06,4.67 6.53,8.19 1.47,3.54 2.2,7.4 2.2,11.61 0,4.5 -0.81,8.56 -2.42,12.18 -1.62,3.61 -3.98,6.38 -7.07,8.31 -3.08,1.91 -6.33,2.88 -9.74,2.88 -2.5,0 -4.74,-0.53 -6.71,-1.58 -1.99,-1.05 -3.61,-2.37 -4.89,-3.97l0 21.56 -7.49 0zm6.81 -38.78c0,5.66 1.15,9.85 3.44,12.56 2.3,2.71 5.08,4.08 8.34,4.08 3.33,0 6.16,-1.41 8.52,-4.22 2.37,-2.81 3.55,-7.15 3.55,-13.04 0,-5.62 -1.15,-9.83 -3.46,-12.62 -2.32,-2.8 -5.07,-4.19 -8.28,-4.19 -3.18,0 -5.99,1.49 -8.43,4.46 -2.46,2.98 -3.68,7.29 -3.68,12.97zm37.74 -0.27c0,-8.16 2.28,-14.21 6.83,-18.14 3.79,-3.26 8.43,-4.9 13.9,-4.9 6.06,0 11.03,1.99 14.89,5.97 3.84,3.96 5.77,9.45 5.77,16.45 0,5.67 -0.85,10.13 -2.55,13.38 -1.7,3.25 -4.19,5.78 -7.45,7.58 -3.25,1.8 -6.82,2.7 -10.66,2.7 -6.19,0 -11.19,-1.98 -15,-5.94 -3.82,-3.96 -5.73,-9.66 -5.73,-17.1zm7.67 0.01c0,5.65 1.23,9.88 3.7,12.68 2.49,2.81 5.6,4.22 9.36,4.22 3.72,0 6.81,-1.41 9.29,-4.23 2.47,-2.83 3.71,-7.13 3.71,-12.91 0,-5.45 -1.25,-9.58 -3.73,-12.37 -2.49,-2.81 -5.58,-4.22 -9.27,-4.22 -3.76,0 -6.87,1.39 -9.36,4.19 -2.47,2.79 -3.7,7.01 -3.7,12.64zm42.51 -22.11l17.25 0c4.23,0 7.38,0.36 9.45,1.07 2.06,0.71 3.83,2 5.31,3.88 1.49,1.91 2.23,4.16 2.23,6.8 0,2.12 -0.44,3.96 -1.31,5.53 -0.88,1.57 -2.19,2.89 -3.95,3.94 2.08,0.7 3.79,1.99 5.17,3.89 1.36,1.89 2.05,4.14 2.05,6.74 -0.27,4.19 -1.78,7.3 -4.49,9.31 -2.71,2.03 -6.66,3.04 -11.82,3.04l-19.89 0 0 -44.2zm7.49 18.65l7.95 0c3.17,0 5.35,-0.17 6.53,-0.5 1.2,-0.34 2.26,-1 3.2,-2.02 0.93,-1.01 1.4,-2.23 1.4,-3.65 0,-2.34 -0.82,-3.96 -2.45,-4.89 -1.65,-0.92 -4.46,-1.37 -8.43,-1.37l-8.2 0 0 12.43zm0 19.42l9.84 0c4.23,0 7.14,-0.5 8.72,-1.48 1.57,-0.99 2.4,-2.68 2.48,-5.11 0,-1.4 -0.45,-2.72 -1.36,-3.93 -0.92,-1.21 -2.12,-1.97 -3.58,-2.28 -1.46,-0.33 -3.82,-0.49 -7.05,-0.49l-9.05 0 0 13.29zm67.3 -38.07l30.83 0 0 38.07 4.77 0 0 18.65 -6.14 0 0 -12.52 -34.83 0 0 12.52 -6.13 0 0 -18.65 3.92 0c5.28,-7.17 7.81,-19.86 7.58,-38.07zm6.22 6.22c-0.56,14.35 -2.77,24.97 -6.65,31.85l23.76 0 0 -31.85 -17.11 0zm41.26 -6.22l34.83 0 0 44.16 -7.5 0 0 -37.94 -19.84 0 0 21.98c0,5.13 -0.17,8.51 -0.5,10.15 -0.34,1.64 -1.24,3.05 -2.73,4.28 -1.51,1.22 -3.67,1.83 -6.49,1.83 -1.75,0 -3.76,-0.12 -6.03,-0.33l0 -6.23 3.28 0c1.54,0 2.65,-0.16 3.32,-0.48 0.66,-0.32 1.1,-0.83 1.33,-1.52 0.21,-0.7 0.33,-2.95 0.33,-6.77l0 -29.13zm80.86 0l0 44.2 -7.49 0 0 -17.2 -4.32 0c-2.63,0 -4.58,0.34 -5.88,1.03 -1.29,0.7 -3.17,2.87 -5.66,6.55l-6.59 9.62 -9.28 0 8.09 -11.87c2.47,-3.63 4.94,-5.67 7.4,-6.14 -4.27,-0.58 -7.45,-2.13 -9.53,-4.63 -2.07,-2.5 -3.11,-5.38 -3.11,-8.63 0,-3.84 1.35,-6.95 4.06,-9.34 2.72,-2.4 6.65,-3.59 11.79,-3.59l20.52 0zm-7.49 6.22l-10.65 0c-4.46,0 -7.34,0.69 -8.63,2.08 -1.29,1.4 -1.93,3.03 -1.93,4.89 0,2.64 0.95,4.58 2.85,5.82 1.89,1.23 5.25,1.86 10.08,1.86l8.28 0 0 -14.65zm39.63 15.88c0,-8.16 2.27,-14.21 6.82,-18.14 3.79,-3.26 8.43,-4.9 13.9,-4.9 6.06,0 11.03,1.99 14.89,5.97 3.84,3.96 5.78,9.45 5.78,16.45 0,5.67 -0.86,10.13 -2.56,13.38 -1.7,3.25 -4.19,5.78 -7.45,7.58 -3.25,1.8 -6.82,2.7 -10.66,2.7 -6.19,0 -11.19,-1.98 -15,-5.94 -3.82,-3.96 -5.72,-9.66 -5.72,-17.1zm7.66 0.01c0,5.65 1.23,9.88 3.7,12.68 2.49,2.81 5.6,4.22 9.36,4.22 3.72,0 6.81,-1.41 9.3,-4.23 2.46,-2.83 3.7,-7.13 3.7,-12.91 0,-5.45 -1.25,-9.58 -3.73,-12.37 -2.49,-2.81 -5.58,-4.22 -9.27,-4.22 -3.76,0 -6.87,1.39 -9.36,4.19 -2.47,2.79 -3.7,7.01 -3.7,12.64zm68.23 -38.89l7.49 0 0 21.12c1.55,-1.77 3.26,-3.09 5.12,-3.97 1.84,-0.87 3.84,-1.31 5.97,-1.31 5.22,0 9.37,2.19 12.43,6.55 3.06,4.35 4.59,9.83 4.59,16.45 0,6.9 -1.65,12.46 -4.94,16.71 -3.29,4.24 -7.4,6.37 -12.29,6.37 -1.61,0 -3.24,-0.26 -4.9,-0.75 -1.66,-0.5 -3.65,-1.86 -5.98,-4.08l0 20.84 -7.49 0 0 -20.84c-1.49,1.61 -3.15,2.81 -4.97,3.62 -1.81,0.81 -3.77,1.21 -5.89,1.21 -4.63,0 -8.67,-2.03 -12.13,-6.08 -3.47,-4.06 -5.2,-9.86 -5.2,-17.41 0,-6.4 1.56,-11.76 4.7,-16.08 3.14,-4.33 7.34,-6.51 12.63,-6.51 2.23,0 4.23,0.44 6.03,1.31 1.81,0.88 3.41,2.2 4.83,3.97l0 -21.12zm7.45 39.07c0,6.64 0.91,11.1 2.74,13.38 1.82,2.29 4.1,3.42 6.84,3.42 3.04,0 5.64,-1.4 7.78,-4.21 2.14,-2.8 3.21,-7.17 3.21,-13.09 0,-5.58 -0.99,-9.75 -2.97,-12.49 -1.97,-2.74 -4.51,-4.1 -7.61,-4.1 -3.32,0 -5.8,1.42 -7.48,4.27 -1.67,2.85 -2.51,7.12 -2.51,12.82zm-27.97 -0.86c0,6.23 1.05,10.72 3.13,13.46 2.09,2.74 4.67,4.12 7.77,4.12 3.23,0 5.66,-1.37 7.26,-4.09 1.59,-2.73 2.4,-6.83 2.4,-12.28 0,-5.82 -0.83,-10.18 -2.52,-13.09 -1.69,-2.91 -4.23,-4.35 -7.64,-4.35 -3.07,0 -5.56,1.42 -7.51,4.25 -1.93,2.84 -2.89,6.83 -2.89,11.98zm64.88 -21.43l7.49 0 0 33.71 20.82 -33.71 8.05 0 0 44.2 -7.49 0 0 -33.5 -20.8 33.5 -8.07 0 0 -44.2zm76.45 28.02l7.32 1.02c-0.81,5.04 -2.85,8.97 -6.16,11.83 -3.31,2.85 -7.38,4.27 -12.19,4.27 -6.04,0 -10.89,-1.98 -14.55,-5.92 -3.68,-3.95 -5.51,-9.6 -5.51,-16.95 0,-4.77 0.8,-8.93 2.37,-12.5 1.58,-3.57 3.98,-6.25 7.21,-8.02 3.22,-1.79 6.73,-2.69 10.53,-2.69 4.79,0 8.72,1.21 11.76,3.64 3.05,2.43 5.01,5.87 5.86,10.33l-7.24 1.11c-0.7,-2.97 -1.92,-5.2 -3.69,-6.7 -1.76,-1.49 -3.89,-2.24 -6.39,-2.24 -3.77,0 -6.84,1.34 -9.21,4.04 -2.36,2.71 -3.53,6.97 -3.53,12.82 0,5.93 1.13,10.23 3.4,12.92 2.29,2.68 5.25,4.03 8.9,4.03 2.95,0 5.41,-0.9 7.37,-2.7 1.97,-1.79 3.22,-4.56 3.75,-8.29zm42.58 10.65c-2.78,2.37 -5.47,4.03 -8.04,5.01 -2.57,0.98 -5.32,1.46 -8.27,1.46 -4.86,0 -8.59,-1.18 -11.2,-3.55 -2.61,-2.36 -3.92,-5.38 -3.92,-9.06 0,-2.15 0.5,-4.13 1.48,-5.92 0.99,-1.78 2.28,-3.2 3.87,-4.28 1.61,-1.08 3.4,-1.9 5.4,-2.46 1.47,-0.38 3.7,-0.75 6.67,-1.12 6.04,-0.71 10.52,-1.57 13.37,-2.57 0.03,-1.02 0.04,-1.67 0.04,-1.94 0,-3.04 -0.71,-5.18 -2.13,-6.43 -1.91,-1.69 -4.77,-2.53 -8.54,-2.53 -3.54,0 -6.15,0.63 -7.82,1.86 -1.69,1.24 -2.93,3.42 -3.74,6.57l-7.32 -1.02c0.67,-3.14 1.76,-5.68 3.29,-7.61 1.54,-1.93 3.75,-3.4 6.65,-4.45 2.88,-1.04 6.24,-1.57 10.04,-1.57 3.78,0 6.86,0.44 9.23,1.34 2.36,0.89 4.1,2 5.21,3.35 1.11,1.35 1.89,3.05 2.34,5.11 0.24,1.28 0.37,3.57 0.37,6.88l0 9.94c0,6.94 0.16,11.32 0.47,13.18 0.3,1.86 0.92,3.64 1.83,5.34l-7.83 0c-0.76,-1.57 -1.24,-3.42 -1.45,-5.53zm-0.6 -16.61c-2.72,1.11 -6.81,2.04 -12.26,2.81 -3.1,0.44 -5.28,0.94 -6.56,1.49 -1.28,0.55 -2.26,1.36 -2.95,2.41 -0.7,1.07 -1.05,2.25 -1.05,3.55 0,1.97 0.75,3.63 2.27,4.95 1.52,1.32 3.73,1.99 6.64,1.99 2.88,0 5.45,-0.62 7.71,-1.89 2.24,-1.25 3.9,-2.96 4.95,-5.13 0.81,-1.69 1.21,-4.18 1.21,-7.46l0.04 -2.72z"/>
   <path class="fil1" d="M123.8 0.9l1177.85 0c9.85,0 19.42,0.45 28.69,1.31l0 0.01c95.05,7.36 169.79,83.06 169.79,175.4 0,93.14 -76.03,169.36 -172.27,175.58l0 -0.11c-9.18,0.96 -18.67,1.46 -28.46,1.46l-1167.25 0c-86.93,-0.89 -139.08,-60.22 -139.08,-141.61 0.95,-81.39 53.06,-137.46 139.99,-137.46l41.07 0 68.02 0c20.26,0.68 39.74,17.83 40.09,39.39l0 131.33c0,12.57 -11.67,25.86 -29.06,25.86l-106.17 0c-22.93,0 -42.03,-17.89 -42.03,-39.35l0 -47.87c0,-21.46 19.1,-39.35 42.03,-39.35l90.96 0.08 0.07 -19.06c-0.04,-8.77 -5.92,-15.76 -18.34,-15.46l-5.17 0 -81.32 0c-62.08,0 -100.64,42.18 -100.64,100.32 0,58.13 37.49,105.37 99.58,105.37l1167.25 0c10.81,0 21.12,-0.79 30.94,-2.25l0 0.07c73.29,-9.86 129.54,-67.4 129.54,-136.91 0,-70.29 -57.52,-128.34 -132.02,-137.23l0 -0.04c-9.55,-1.15 -19.57,-1.75 -30.03,-1.75l-1174.03 0 0 -37.73zm256.77 271.26l29.97 0c3.86,0 7.73,-3.81 7.73,-7.63l0 0 0 -145.43c0,-3.81 3.87,-7.63 7.73,-7.63l0 0 52.2 0c3.87,0 7.73,-3.82 7.73,-7.64l0 -20.64c0,-3.82 -3.86,-7.64 -7.73,-7.64l-165.29 0c-3.86,0 -7.73,3.82 -7.73,7.64l0 0 0 20.64c0,3.82 3.87,7.64 7.73,7.64l0 0 52.2 0c3.86,0 7.73,3.82 7.73,7.64l0 145.42c0,3.82 2.9,7.63 7.73,7.63zm202.21 0l29.96 0c3.87,0 7.73,-3.81 7.73,-7.63l0 0 0 -145.43c0,-3.81 3.87,-7.63 7.74,-7.63l0 0 52.19 0c3.87,0 7.74,-3.82 7.74,-7.64l0 -20.64c0,-3.82 -3.87,-7.64 -7.74,-7.64l-165.28 0c-3.87,0 -7.73,3.82 -7.73,7.64l0 0 0 20.64c0,3.82 3.86,7.64 7.73,7.64l0 0 52.19 0c3.87,0 7.74,3.82 7.74,7.64l0 145.42c0,3.82 2.9,7.63 7.73,7.63zm264.03 -196.61c20.26,0.67 39.7,18.37 40.04,39.74l0 130.25c0,12.46 -11.67,25.64 -29.06,25.64l-106.17 0c-22.92,0 -42.03,-17.74 -42.03,-39.03l0 -47.46c0,-21.29 19.11,-39.03 42.03,-39.03l90.96 0.08 0.08 -18.9c-0.05,-8.7 -5.92,-15.63 -18.34,-15.33l-96.36 0c-6.69,0 -11.47,-4.44 -11.47,-10.65l0 -14.58c0,-6.21 4.78,-10.65 11.47,-10.65l118.85 -0.08zm-4.85 107.14l-71.24 0c-8.59,0 -16.23,6.99 -16.23,14.85l0 21.11c0,7.86 7.64,14.85 16.23,14.85l67.42 0c2.86,0 4.77,-1.75 4.77,-4.37l0 0 0 -46.43 -0.95 -0.01 0 0zm411.45 5.33l100.16 0c23.53,0 32.22,-6.01 32.22,-27.65l0 0 0 -27.13c0,-31.55 -28.44,-57.69 -62.76,-57.69l0 0 -62.76 0c-32.35,0 -57.85,24.34 -57.85,53.19l0 94.65c0,27.04 23.54,48.68 52.95,48.68l0 0 110.81 0c6.86,0 11.76,-4.51 11.76,-10.82l0 -20.73c0,-6.31 -4.9,-10.82 -11.76,-10.82l-100.8 0c-12.27,-0.51 -17.39,-8.41 -16.87,-15.8l0 0 0 -21.38c0,-2.7 1.96,-4.5 4.9,-4.5zm24.04 -78.21l32.99 0c16.79,0 30.53,13.85 30.53,30.78l0 9.73 -94.05 0 0 -9.73c0,-16.93 13.74,-30.78 30.53,-30.78zm-335.3 -34.26l-24.44 0c-5.64,0 -9.4,4.44 -9.4,8.87l0 0 0 168.05c0,10.64 9.4,19.51 20.68,19.51l0 0 231.29 0c11.28,0 20.68,-8.87 20.68,-19.51l0 0 0 -168.05c0,-5.32 -4.7,-8.87 -9.4,-8.87l-24.44 0c-5.64,0 -9.4,4.44 -9.4,8.87l0 0 0 146.21c0,1.78 -1.89,3.55 -3.76,3.55l0 0 -64.88 0c-1.88,0 -3.76,-1.77 -3.76,-3.55l0 0 0 -146.21c0,-5.32 -4.7,-8.87 -9.4,-8.87l-24.45 0c-5.64,0 -9.4,4.44 -9.4,8.87l0 146.21c0,1.78 -1.88,3.55 -3.76,3.55l0 0 -62.05 0c-1.88,0 -3.76,-1.77 -3.76,-3.55l0 0 0 -146.21c-0.94,-5.32 -5.65,-8.87 -10.35,-8.87zm-704.81 107.28l-71.23 0c-8.6,0 -16.24,7.05 -16.24,14.97l0 21.29c0,7.93 7.64,14.97 16.24,14.97l67.41 0c2.87,0 4.78,-1.76 4.78,-4.4l0 0 0 -46.83 -0.96 0 0 0z"/>
  </g>
 </g>
</svg>
