<svg width="24934.999999999996" height="5910" xmlns="http://www.w3.org/2000/svg">
 <defs>
  <style type="text/css">
   <![CDATA[
    .fil0 {fill:#B3036A}
    .fil1 {fill:#B3036A;fill-rule:nonzero}
   ]]>
  </style>
 </defs>
 <g>
  <title>background</title>
  <rect fill="none" id="canvas_background" height="5912" width="24937" y="-1" x="-1"/>
 </g>
 <g>
  <title>Layer 1</title>
  <g stroke="null" id="Слой_x0020_1">
   <metadata stroke="null" transform="translate(20.001205444335938,0) translate(0,-20.001205444335938) translate(0,20.001205444335938) translate(-40.002410888671875,-2040.123046875) translate(1,1) translate(-20.001205444335938,0) translate(1191.5087890625,2353.219970703125) scale(1.0523017644882202) translate(-1191.5087890625,-2353.219970703125) translate(23695.005859375,7530.8896484375) scale(1.0480175018310547) translate(-23695.005859375,-7530.8896484375) " id="CorelCorpID_0Corel-Layer"/>
   <g stroke="null" id="_1215524441104">
    <path stroke="null" id="svg_1" d="m2190.953541,46.565112l19447.172603,0c162.711637,0 320.648016,7.366909 473.6768,21.615481l0,0.187481c1569.493463,121.476798 2803.494809,1371.369934 2803.494809,2895.912019c0,1537.787081 -1255.429346,2796.348466 -2844.343657,2899.077143l0,-1.830699c-151.650245,15.814592 -308.296313,24.118907 -469.96026,24.118907l-19272.19749,0c-1435.168688,-14.777931 -2296.358127,-994.356242 -2296.358127,-2338.111296c15.770479,-1343.799167 876.176908,-2269.57037 2311.356624,-2269.57037l678.130577,0l1123.089666,0c334.521626,11.226816 656.206303,294.37859 661.863824,650.217933l0,2168.517996c0,207.43142 -192.653489,426.872666 -479.742368,426.872666l-1752.993457,0c-378.502513,0 -693.945169,-295.338052 -693.945169,-649.732687l0,-790.277427c0,-354.394635 315.442656,-649.743715 693.945169,-649.743715l1501.84583,1.268255l1.191057,-314.582448c-0.705812,-144.878865 -97.699769,-260.257009 -302.826273,-255.349412l-85.38115,0l-1342.575025,0c-1025.114189,0 -1661.645993,696.514764 -1661.645993,1656.33035c0,959.859699 618.930627,1739.748461 1644.044816,1739.748461l19272.164405,0c178.592398,0 348.847396,-12.947232 510.842193,-37.132309l0,1.23517c1210.114034,-162.899118 2138.796709,-1112.778199 2138.796709,-2260.460989c0,-1160.585908 -949.62543,-2119.000899 -2179.645557,-2265.776632l0,-0.749925c-157.759927,-18.935603 -323.107329,-28.872107 -495.887809,-28.872107l-19384.112746,-0.033085l0,-622.87876zm1874.690821,3003.846056l-1176.102736,0c-141.945335,0 -268.109163,116.31555 -268.109163,247.089211l0,351.604473c0,130.861887 126.163828,247.133324 268.109163,247.133324l1113.042878,0c47.289379,0 78.841364,-29.059588 78.841364,-72.665513l0,0l0,-773.161495l-15.781507,0l0,0z" class="fil0"/>
    <g stroke="null" id="svg_2">
     <path stroke="null" id="svg_3" d="m14128.41175,1279.011466c334.554711,11.149618 655.44535,303.344603 661.102871,656.22836l0,2150.442601c0,205.711004 -192.631432,423.321551 -479.753396,423.321551l-1752.982429,0c-378.502513,0 -693.923112,-292.87874 -693.923112,-644.328817l0,-783.693528c0,-351.439048 315.420599,-644.328817 693.923112,-644.328817l1501.834801,1.290312l1.213114,-311.990796c-0.705812,-143.665751 -97.699769,-258.062376 -302.815244,-253.187864l-1590.976604,0c-110.39335,0 -189.245742,-73.216928 -189.245742,-175.736067l0,-240.858218c0,-102.519139 78.852393,-175.736067 189.245742,-175.736067l1962.376888,-1.422652zm-80.10962,1769.105813l-1176.113764,0c-141.945335,0 -268.109163,115.334031 -268.109163,245.048974l0,348.670943c0,129.748028 126.174857,245.048974 268.109163,245.048974l1113.020822,0.011028c47.289379,0 78.852393,-28.827994 78.852393,-72.069984l0,0l0,-766.687879l-15.75945,-0.022057l0,0z" class="fil0"/>
     <path stroke="null" id="svg_4" d="m20841.70595,3135.968771l1653.661499,0c388.560329,0 532.005513,-99.18859 532.005513,-456.406471l0,0l0,-447.936732c0,-520.944122 -469.519128,-952.592045 -1036.164553,-952.592045l0,0l-1036.175581,0c-534.277345,0 -955.194725,401.882523 -955.194725,878.162003l0,1562.854422c0,446.51408 388.560329,803.731961 874.257982,803.731961l0,0l1829.463736,0c113.337908,0 194.285678,-74.419013 194.285678,-178.614455l0,-342.329667c0,-104.184413 -80.947771,-178.603426 -194.285678,-178.603426l-1664.182504,0c-202.589993,-8.502824 -287.077851,-138.923579 -278.641196,-260.863566l0,0l0,-352.99404c0.022057,-44.631557 32.390137,-74.407985 80.969828,-74.407985zm396.8867,-1291.161059l544.643953,0c277.284714,0 504.125954,228.649882 504.125954,508.12923l0,160.638315l-1552.884833,0l0,-160.638315c0,-279.479347 226.84124,-508.12923 504.114926,-508.12923z" class="fil1"/>
     <path stroke="null" id="svg_5" d="m15702.6143,1279.05558l-403.613967,0c-93.13405,0 -155.223416,73.216928 -155.223416,146.422828l0,0l0,2774.644758c0,175.702982 155.223416,322.147866 341.502544,322.147866l0,0l3818.782777,0.022057c186.279128,0 341.502544,-146.433856 341.502544,-322.169923l0,0l0,-2774.622702c0,-87.862519 -77.617222,-146.433856 -155.223416,-146.433856l-403.613967,-0.011028c-93.145078,0 -155.234445,73.216928 -155.234445,146.422828l0,0l0,2414.129414c0,29.302211 -31.044683,58.571337 -62.078338,58.571337l0,0l-1071.124285,0.022057c-31.055712,0 -62.089367,-29.291182 -62.089367,-58.571337l0,0l0,-2414.129414c0,-87.862519 -77.617222,-146.433856 -155.223416,-146.433856l-403.636024,-0.011028c-93.145078,0 -155.234445,73.216928 -155.234445,146.422828l0,2414.129414c0,29.302211 -31.055712,58.571337 -62.089367,58.571337l0,0l-1024.540717,0.022057c-31.055712,0 -62.089367,-29.291182 -62.089367,-58.571337l0,0l0,-2414.129414c-15.538884,-87.862519 -93.156106,-146.444884 -170.773329,-146.444884z" class="fil1"/>
    </g>
    <path stroke="null" id="svg_6" d="m9769.076522,4525.325873l494.696752,0c63.853896,0 127.674706,-63.026773 127.674706,-126.097658l0,0l0,-2401.027785c0,-63.015744 63.831839,-126.08663 127.663678,-126.08663l0,0l861.795996,0c63.842867,0 127.696763,-63.026773 127.696763,-126.08663l0,-340.851874c0,-63.070886 -63.853896,-126.130743 -127.696763,-126.130743l-2728.965512,0.044113c-63.809782,0 -127.65265,63.015744 -127.65265,126.130743l0,0l0,340.840846c0,63.026773 63.809782,126.097658 127.65265,126.097658l0,0l861.773939,-0.044113c63.809782,0 127.696763,63.070886 127.696763,126.130743l0,2401.027785c0,63.026773 47.851823,126.053545 127.663678,126.053545z" class="fil1"/>
    <path stroke="null" id="svg_7" d="m6430.51033,4525.325873l494.70778,0c63.842867,0 127.674706,-63.026773 127.674706,-126.097658l0,0l0,-2401.027785c0,-63.015744 63.831839,-126.08663 127.65265,-126.08663l0,0l861.795996,0c63.853896,0 127.696763,-63.026773 127.696763,-126.08663l0,-340.851874c0,-63.070886 -63.842867,-126.130743 -127.696763,-126.130743l-2728.954484,0.044113c-63.809782,0 -127.663678,63.015744 -127.663678,126.130743l0,0l0,340.840846c0,63.026773 63.809782,126.097658 127.663678,126.097658l0,0l861.773939,-0.044113c63.798754,0 127.696763,63.070886 127.696763,126.130743l0,2401.027785c0,63.026773 47.840794,126.053545 127.65265,126.053545z" class="fil1"/>
   </g>
  </g>
 </g>
</svg>