<svg xmlns="http://www.w3.org/2000/svg" width="36.147" height="36.5" viewBox="0 0 36.147 36.5"><path d="M35.283,6.926a3.547,3.547,0,0,0-2.716-1.2H6.587l-.261-1.96C6.044,1.654,4.574,0,2.978,0H1.069a1.069,1.069,0,0,0,0,2.139H2.978c.343,0,1.07.725,1.228,1.91L7.267,27.007a4.324,4.324,0,0,0,1.464,2.668A4.419,4.419,0,0,0,10.783,30.7a3.933,3.933,0,1,0,6.956.077h5.6a3.933,3.933,0,1,0,7,0h2.8a1.069,1.069,0,1,0,0-2.139H11.569a2.3,2.3,0,0,1-2.182-1.911l-.224-1.678H30.276a4.439,4.439,0,0,0,4.3-3.766l1.534-11.5A3.547,3.547,0,0,0,35.283,6.926ZM16.035,32.567a1.794,1.794,0,1,1-1.794-1.794A1.8,1.8,0,0,1,16.035,32.567Zm12.6,0a1.794,1.794,0,1,1-1.794-1.794A1.8,1.8,0,0,1,28.635,32.567ZM33.674,8.334a1.437,1.437,0,0,1,.318,1.159l-.643,4.824H26.073l.43-6.452h6.064A1.438,1.438,0,0,1,33.674,8.334ZM18.488,22.907l-.43-6.452h5.73l-.43,6.452Zm-.573-8.59-.43-6.452H24.36l-.43,6.452ZM15.342,7.865l.43,6.452H7.732l-.86-6.452Zm-7.324,8.59h7.9l.43,6.452H8.878Zm22.259,6.452H25.5l.43-6.452h7.133L32.459,21A2.3,2.3,0,0,1,30.276,22.907Zm0,0" fill="#b3036a"/></svg>